<?xml version="1.0" encoding="utf-8"?>
<!-- Generator: Adobe Illustrator 26.3.1, SVG Export Plug-In . SVG Version: 6.00 Build 0)  -->
<svg version="1.1" id="Capa_1" xmlns="http://www.w3.org/2000/svg" xmlns:xlink="http://www.w3.org/1999/xlink" x="0px" y="0px"
	 viewBox="0 0 960 560" style="enable-background:new 0 0 960 560;" xml:space="preserve">
<style type="text/css">
	.st0{display:none;}
	.st1{display:inline;fill:url(#SVGID_1_);}
	.st2{display:inline;}
	.st3{fill:#FFFFFF;}
	.st4{display:inline;fill:#FFFFFF;}
	.st5{display:inline;fill:#295396;}
	.st6{font-family:'MyriadPro-Bold';}
	.st7{font-size:226.7717px;}
	.st8{fill:#ADADAD;}
	.st9{fill:url(#SVGID_00000125577607319266022990000003621476350449851316_);}
	.st10{fill-rule:evenodd;clip-rule:evenodd;fill:#FFFFFF;}
</style>
<g id="Whatsapp" class="st0">
	
		<radialGradient id="SVGID_1_" cx="157.7967" cy="266.4149" r="263.8217" gradientTransform="matrix(-0.3109 -0.9505 1.4931 -0.4883 -190.9356 546.4944)" gradientUnits="userSpaceOnUse">
		<stop  offset="0" style="stop-color:#FFC854"/>
		<stop  offset="0.2688" style="stop-color:#FF3F2E"/>
		<stop  offset="0.5484" style="stop-color:#FF1A7E"/>
		<stop  offset="0.7796" style="stop-color:#9127D1"/>
		<stop  offset="1" style="stop-color:#5C39EC"/>
	</radialGradient>
	<circle class="st1" cx="168.3" cy="158.3" r="127.6"/>
	<g class="st2">
		<path class="st3" d="M213.9,81.6c18.5,0,33.6,15.1,33.6,33.6v91.2c0,18.5-15.1,33.6-33.6,33.6h-91.2c-18.5,0-33.6-15.1-33.6-33.6
			v-91.2c0-18.5,15.1-33.6,33.6-33.6H213.9 M213.9,64.4h-91.2C94.7,64.4,72,87.1,72,115.1v91.2c0,28.1,22.7,50.8,50.8,50.8h91.2
			c28.1,0,50.8-22.7,50.8-50.8v-91.2C264.7,87.1,242,64.4,213.9,64.4L213.9,64.4z"/>
	</g>
	<g class="st2">
		<path class="st3" d="M168.3,126.1c19.1,0,34.6,15.5,34.6,34.6s-15.5,34.6-34.6,34.6s-34.6-15.5-34.6-34.6S149.3,126.1,168.3,126.1
			 M168.3,111.1c-27.4,0-49.6,22.2-49.6,49.6s22.2,49.6,49.6,49.6s49.6-22.2,49.6-49.6S195.7,111.1,168.3,111.1L168.3,111.1z"/>
	</g>
	<circle class="st4" cx="217.7" cy="107.5" r="14.2"/>
</g>
<g class="st0">
	<circle class="st5" cx="495.4" cy="159" r="127.6"/>
	<text transform="matrix(1 0 0 1 455.061 239.7589)" class="st4 st6 st7">f</text>
</g>
<g id="Whatsapp_1_" class="st0">
	<g class="st2">
		<path class="st8" d="M799,26.2c67.4,0,123.7,52.8,127.3,120.9c3.7,70.4-50.4,130.4-120.7,134.1c-2.3,0.1-4.5,0.2-6.8,0.2
			c-24.7,0-47.9-7.1-67.5-19.4l-75.7,29.8l30-79.3c-8.1-15.7-13.1-33.3-14.1-52c-3.7-70.4,50.4-130.4,120.7-134.1
			C794.5,26.3,796.8,26.2,799,26.2 M799,23.4c-2.3,0-4.6,0.1-6.9,0.2c-34.8,1.8-66.8,17.1-90.1,43s-35.1,59.3-33.3,94.1
			c1,18.3,5.6,35.8,13.8,52L653,290.7l-2.3,6l6-2.3l74.3-29.3c20.4,12.5,43.8,19.1,67.8,19.1c2.3,0,4.6-0.1,6.9-0.2
			c34.8-1.8,66.8-17.1,90.1-43c23.3-25.9,35.1-59.3,33.3-94.1C925.5,77.7,868.3,23.4,799,23.4L799,23.4z"/>
	</g>
	<g class="st2">
		
			<linearGradient id="SVGID_00000005226893805213098290000003168745478102846354_" gradientUnits="userSpaceOnUse" x1="792.8148" y1="270.7139" x2="792.8148" y2="37.6327" gradientTransform="matrix(0.9986 -5.225894e-02 5.225894e-02 0.9986 -7.0511 41.4069)">
			<stop  offset="0" style="stop-color:#47C530"/>
			<stop  offset="0.1581" style="stop-color:#32B321"/>
			<stop  offset="0.3649" style="stop-color:#1DA212"/>
			<stop  offset="0.5" style="stop-color:#159B0C"/>
			<stop  offset="0.6339" style="stop-color:#1CA111"/>
			<stop  offset="0.8349" style="stop-color:#31B320"/>
			<stop  offset="1" style="stop-color:#47C530"/>
		</linearGradient>
		<path style="fill:url(#SVGID_00000005226893805213098290000003168745478102846354_);" d="M698.3,211.6l-2.3-4.4
			c-7.7-14.8-12-30.8-12.9-47.5c-3.4-64.2,46.1-119.1,110.3-122.5c2.1-0.1,4.1-0.2,6.2-0.2c62,0,113,48.5,116.3,110.5
			c1.6,31.1-8.9,60.9-29.8,84.1s-49.4,36.8-80.5,38.4c-2.1,0.1-4.1,0.2-6.2,0.2c0,0,0,0,0,0c-21.9,0-43.2-6.1-61.7-17.7l-4.7-3
			l-57.7,22.7L698.3,211.6z"/>
		<path class="st3" d="M799.7,48.1c56.1,0,102.3,43.9,105.3,100c1.5,28.1-8.1,55.2-27,76.1s-44.8,33.3-72.9,34.8
			c-1.9,0.1-3.8,0.1-5.6,0.1c-19.8,0-39.1-5.5-55.8-16l-9.4-5.9l-10.4,4.1l-29.3,11.6l12.4-32.7l3.5-9.2l-4.5-8.7
			c-6.9-13.4-10.9-27.8-11.6-43c-1.5-28.1,8.1-55.2,27-76.1C740,62,765.9,49.7,794.1,48.2C795.9,48.1,797.8,48.1,799.7,48.1
			 M799.7,26c-2.2,0-4.5,0.1-6.8,0.2c-70.4,3.7-124.4,63.7-120.7,134.1c1,18.8,6,36.4,14.1,52l-30,79.3l75.7-29.8
			c19.7,12.3,42.9,19.4,67.5,19.4c2.2,0,4.5-0.1,6.8-0.2c70.4-3.7,124.4-63.7,120.7-134.1C923.4,78.8,867.1,26,799.7,26L799.7,26z"
			/>
	</g>
	<g id="Telf" class="st2">
		<path class="st10" d="M856.7,174.2c-6-3.6-13.8-7.6-20.9-4.7c-5.4,2.2-8.9,10.7-12.4,15.1c-1.8,2.2-4,2.6-6.7,1.5
			c-20.4-8.1-36-21.7-47.3-40.5c-1.9-2.9-1.6-5.2,0.7-7.9c3.4-4,7.7-8.5,8.6-13.9c0.9-5.4-1.6-11.7-3.8-16.5
			c-2.8-6.1-6-14.9-12.2-18.4c-5.7-3.2-13.1-1.4-18.1,2.7c-8.7,7.1-12.9,18.2-12.8,29.2c0,3.1,0.4,6.2,1.1,9.3
			c1.8,7.3,5.1,14,8.9,20.5c2.8,4.9,5.9,9.6,9.3,14.1c10.9,14.8,24.5,27.7,40.2,37.3c7.9,4.8,16.3,9,25.1,11.9
			c9.8,3.2,18.6,6.6,29.2,4.6c11.1-2.1,22.1-9,26.5-19.7c1.3-3.2,2-6.7,1.2-10C871.6,181.7,862.3,177.6,856.7,174.2z"/>
	</g>
</g>
<g id="Whatsapp_00000029730797571932400890000009337145433376858514_" class="st0">
	<g class="st2">
		<path class="st3" d="M121,642.1c6.9,0,12.5,5.6,12.5,12.5v34.1c0,6.9-5.6,12.5-12.5,12.5H87c-6.9,0-12.5-5.6-12.5-12.5v-34.1
			c0-6.9,5.6-12.5,12.5-12.5H121 M121,635.7H87c-10.5,0-19,8.5-19,19v34.1c0,10.5,8.5,19,19,19H121c10.5,0,19-8.5,19-19v-34.1
			C140,644.2,131.5,635.7,121,635.7L121,635.7z"/>
	</g>
	<g class="st2">
		<path class="st3" d="M104,658.7c7.1,0,12.9,5.8,12.9,12.9s-5.8,12.9-12.9,12.9s-12.9-5.8-12.9-12.9S96.9,658.7,104,658.7
			 M104,653.1c-10.2,0-18.5,8.3-18.5,18.5s8.3,18.5,18.5,18.5s18.5-8.3,18.5-18.5S114.2,653.1,104,653.1L104,653.1z"/>
	</g>
	<circle class="st4" cx="122.5" cy="651.8" r="5.3"/>
</g>
<g>
	<text transform="matrix(1 0 0 1 12.9575 750.0986)" class="st3 st6" style="font-size:155.0673px;">f</text>
</g>
<g id="Whatsapp_00000165933698394353580240000005825282688400908708_" class="st0">
	<g class="st2">
		<path class="st3" d="M191.9,638c15.9,0,29.1,12.5,29.9,28.4c0.4,8-2.3,15.7-7.7,21.6s-12.7,9.5-20.7,9.9c-0.5,0-1.1,0-1.6,0
			c-5.6,0-11.1-1.6-15.9-4.6l-2-1.2l-2.2,0.9l-10.8,4.3l4.4-11.8l0.7-1.9l-0.9-1.8c-2-3.8-3.1-7.9-3.3-12.2
			c-0.9-16.5,11.9-30.6,28.4-31.5C190.8,638,191.4,638,191.9,638 M191.9,633.3c-0.6,0-1.2,0-1.8,0c-19.1,1-33.7,17.3-32.7,36.3
			c0.3,5.1,1.6,9.9,3.8,14.1l-8.1,21.5l20.5-8.1c5.3,3.3,11.6,5.3,18.3,5.3c0.6,0,1.2,0,1.8,0c19.1-1,33.7-17.3,32.7-36.3
			C225.4,647.7,210.2,633.3,191.9,633.3L191.9,633.3z"/>
	</g>
	<g id="Telf_00000045605445594205779910000004472118829093432750_" class="st2">
		<path class="st10" d="M207.3,673.5c-1.6-1-3.8-2.1-5.7-1.3c-1.5,0.6-2.4,2.9-3.4,4.1c-0.5,0.6-1.1,0.7-1.8,0.4
			c-5.5-2.2-9.8-5.9-12.8-11c-0.5-0.8-0.4-1.4,0.2-2.1c0.9-1.1,2.1-2.3,2.3-3.8c0.2-1.5-0.4-3.2-1-4.5c-0.8-1.7-1.6-4-3.3-5
			c-1.5-0.9-3.6-0.4-4.9,0.7c-2.4,1.9-3.5,4.9-3.5,7.9c0,0.8,0.1,1.7,0.3,2.5c0.5,2,1.4,3.8,2.4,5.5c0.8,1.3,1.6,2.6,2.5,3.8
			c3,4,6.6,7.5,10.9,10.1c2.1,1.3,4.4,2.4,6.8,3.2c2.7,0.9,5,1.8,7.9,1.2c3-0.6,6-2.4,7.2-5.3c0.4-0.9,0.5-1.8,0.3-2.7
			C211.4,675.5,208.9,674.4,207.3,673.5z"/>
	</g>
</g>
</svg>
