<svg id="PRINT_1" data-name="PRINT 1" xmlns="http://www.w3.org/2000/svg" viewBox="0 0 519.59 272.1"><defs><style>.cls-1{fill-rule:evenodd;}</style></defs><path class="cls-1" d="M79.05,135.78a10.49,10.49,0,0,0,7.75-3.1,6.9,6.9,0,0,0,2-3.45,5.47,5.47,0,0,0-1.1-4.59A11.6,11.6,0,0,0,84.39,122c-2-1.22-4.14-2.2-6.22-3.28a50.67,50.67,0,0,1-5.9-3.28,13.41,13.41,0,0,1-4.44-5.1,10.66,10.66,0,0,1-1-5.53A9,9,0,0,1,68.48,100a9.71,9.71,0,0,1,4.83-3.43,22.27,22.27,0,0,1,8.1-1.21,31.56,31.56,0,0,1,5.79.9c.85.19,1.7.4,2.56.52a1.17,1.17,0,0,0,1.32-.58.43.43,0,0,1,.43-.23c.21,0,.29.18.32.36.1.86.2,1.71.29,2.57.22,2.36.44,4.71.65,7.07,0,.35.06.71.09,1.07a1.42,1.42,0,0,1,0,.29.39.39,0,0,1-.35.29c-.22,0-.18-.18-.2-.28-.27-1-.5-2.06-.76-3.08a12.57,12.57,0,0,0-2.15-4.89,8.09,8.09,0,0,0-4.54-2.85,11.2,11.2,0,0,0-6,0,5.89,5.89,0,0,0-2.63,9.69,14.53,14.53,0,0,0,4.29,3c3.07,1.57,6.22,3,9.28,4.59A14.42,14.42,0,0,1,95.57,119a10.18,10.18,0,0,1,1.57,5.87A10.46,10.46,0,0,1,92,133.56a18.29,18.29,0,0,1-6.8,2.52,30.16,30.16,0,0,1-8.43.28A23.54,23.54,0,0,1,68.37,134a13.73,13.73,0,0,1-6-5.65,8.6,8.6,0,0,1,.72-9.19,6.26,6.26,0,0,1,4.08-2.23,8.82,8.82,0,0,1,5.17.66,7.17,7.17,0,0,1,4.28,5.26,5.59,5.59,0,0,1-.16,2.84c-.08.22-.16.27-.38.2-2.63-.89-4.42,1-5.07,2.77A4.53,4.53,0,0,0,72.79,134a8.75,8.75,0,0,0,4.36,1.64C77.79,135.72,78.43,135.76,79.05,135.78Z"/><path class="cls-1" d="M130.88,106.69v1.38a2.88,2.88,0,0,1,0,.41c0,.29-.06.58-.09.87-.08.45-.16.89-.27,1.32a12,12,0,0,1-2.74,5.15,12.83,12.83,0,0,1-2.77,2.37,16.06,16.06,0,0,1-4.91,2.1,17.89,17.89,0,0,1-2.3.42l-1.15.13h0c-.31,0-.64,0-1,0h0c-.39,0-.81,0-1.22,0h0c-.55,0-1.09,0-1.62,0l-1.7,0h-.42a.7.7,0,0,0-.25,0,.2.2,0,0,0-.18.16.17.17,0,0,0,0,.08c0,.12,0,.24,0,.36,0,.43,0,.86,0,1.28,0,.83,0,1.67,0,2.5s0,2,0,2.91c0,.75,0,1.46,0,2.21v0a6.16,6.16,0,0,0,.11.94,7.88,7.88,0,0,0,.36,1.3,3.49,3.49,0,0,0,.67,1.14,3.22,3.22,0,0,0,1.31.89,3.58,3.58,0,0,0,1,.29,4.6,4.6,0,0,0,.52.06l.07,0,.1,0a1.29,1.29,0,0,1,.39,0,.37.37,0,0,1,.26.2.2.2,0,0,1,0,.07.93.93,0,0,1,0,.33.26.26,0,0,1-.15.19h-.58a1.27,1.27,0,0,0-.34,0H96.22l-.31-.07,0,0a.12.12,0,0,1-.05,0,.67.67,0,0,1,0-.44.56.56,0,0,1,.15-.1l.08,0a1.65,1.65,0,0,0,.47-.08h0l.82-.11a3.3,3.3,0,0,0,.75-.19,2.94,2.94,0,0,0,1.38-1,3.79,3.79,0,0,0,.52-1,6.56,6.56,0,0,0,.36-1.59c0-.24,0-.47.08-.71a10.86,10.86,0,0,0,0-1.15c0-.79,0-1.59,0-2.38V112.12c0-1,0-1.92,0-2.87,0-.65,0-1.3,0-1.94,0-1.57,0-3.12,0-4.68,0-.55,0-1.12,0-1.67v0c0-.22,0-.44-.08-.66h0a9.37,9.37,0,0,0-.2-1.08,4.1,4.1,0,0,0-.16-.73,3,3,0,0,0-1.61-1.88,4.35,4.35,0,0,0-1.36-.4c-.35,0-.68-.08-1-.1a.51.51,0,0,1-.24,0,.23.23,0,0,1-.11-.08.18.18,0,0,1-.05-.12v-.12a.76.76,0,0,1,0-.16.21.21,0,0,1,.21-.16h18.66l3.09,0a17.67,17.67,0,0,1,1.78.08c.36,0,.75.07,1.11.13a13.55,13.55,0,0,1,1.7.39A13,13,0,0,1,127.44,99a10.39,10.39,0,0,1,1.75,2.06,10.17,10.17,0,0,1,1.3,2.89c.12.46.2.93.28,1.41,0,.19,0,.4.07.59a.08.08,0,0,1,0,0,1.71,1.71,0,0,0,0,.39v.36ZM110.29,114v5.83c0,.06,0,.12,0,.16a.3.3,0,0,0,.24.22,1.18,1.18,0,0,0,.27,0,5.16,5.16,0,0,0,.79-.08c.52-.08,1-.2,1.54-.33a9.61,9.61,0,0,0,4.77-3.16c.35-.43.67-.91,1-1.38a15.47,15.47,0,0,0,1.79-4,16.3,16.3,0,0,0,.39-1.71c0-.31.08-.64.12-1s0-.54,0-.81a20,20,0,0,0-.18-2.68l0-.13c-.07-.41-.16-.85-.24-1.27a16.34,16.34,0,0,0-.57-1.84,9.76,9.76,0,0,0-1.2-2.28,8.29,8.29,0,0,0-3.93-3,9.81,9.81,0,0,0-2.67-.53l-.69,0c-.33,0-.68,0-1,0a.5.5,0,0,0-.19,0,.37.37,0,0,0-.32.32.07.07,0,0,1,0,.06,2.48,2.48,0,0,0,0,.39v2.73c0,.56,0,1.11,0,1.68v3.16c0,1.16,0,2.33,0,3.5v.08a.07.07,0,0,0,0,.07s0,0,0,0V114Z"/><path d="M95.26,82.13c24.68,0,44.7,14.6,44.7,32.62s-20,32.63-44.7,32.63-44.71-14.61-44.71-32.63,20-32.62,44.71-32.62m0-1.82c-25.65,0-46.52,15.45-46.52,34.44s20.87,34.44,46.52,34.44,46.51-15.45,46.51-34.44S120.9,80.31,95.26,80.31Z"/></svg>