<svg id="Layer_1" data-name="Layer 1" xmlns="http://www.w3.org/2000/svg" xmlns:xlink="http://www.w3.org/1999/xlink" viewBox="0 0 1124.65 832.9"><defs><style>.cls-1{fill:url(#linear-gradient);}.cls-2{opacity:0.45;}.cls-3,.cls-4{fill:#56121b;}.cls-3,.cls-5{fill-rule:evenodd;}.cls-5{fill:#fff;}</style><linearGradient id="linear-gradient" x1="11.16" y1="416.45" x2="1113.49" y2="416.45" gradientUnits="userSpaceOnUse"><stop offset="0.18" stop-color="#56121b"/><stop offset="0.37" stop-color="#9d292a"/><stop offset="0.51" stop-color="#be292b"/><stop offset="0.64" stop-color="#9d292a"/><stop offset="0.83" stop-color="#56121b"/></linearGradient></defs><path class="cls-1" d="M562.33,821.74c-74,0-145.85-10.59-213.49-31.47-65.49-20.22-124.34-49.19-174.93-86.12C123.05,667,83.08,623.74,55.1,575.46,26,525.15,11.16,471.65,11.16,416.45S26,307.75,55.1,257.44c28-48.28,67.95-91.58,118.81-128.69,50.59-36.93,109.44-65.9,174.93-86.12,67.64-20.88,139.47-31.47,213.49-31.47S708.17,21.75,775.81,42.63c65.48,20.22,124.34,49.19,174.93,86.12,50.86,37.11,90.83,80.41,118.81,128.69,29.15,50.31,43.94,103.81,43.94,159s-14.79,108.7-43.94,159c-28,48.28-67.95,91.58-118.81,128.69-50.59,36.93-109.45,65.9-174.93,86.12C708.17,811.15,636.34,821.74,562.33,821.74Z"/><path d="M562.32,22.33c298.24,0,540,176.45,540,394.12s-241.77,394.12-540,394.12-540-176.45-540-394.12,241.76-394.12,540-394.12m0-22.33C487.19,0,414.26,10.75,345.55,32c-66.67,20.58-126.63,50.1-178.22,87.76-52.12,38-93.12,82.48-121.89,132.12C15.29,303.88,0,359.26,0,416.45S15.29,529,45.44,581.06c28.77,49.63,69.77,94.08,121.89,132.11,51.59,37.66,111.55,67.18,178.22,87.76,68.71,21.21,141.64,32,216.77,32s148.07-10.76,216.78-32c66.67-20.58,126.63-50.1,178.22-87.76,52.12-38,93.12-82.48,121.88-132.11,30.16-52,45.45-107.42,45.45-164.61s-15.29-112.57-45.44-164.61c-28.77-49.63-69.77-94.08-121.89-132.11C905.73,82.07,845.77,52.55,779.1,32,710.39,10.75,637.46,0,562.32,0Z"/><g class="cls-2"><path class="cls-3" d="M353.42,682.73a362.82,362.82,0,0,1-39.18-2.13c-41.42-4.53-74.42-13.79-103.86-29.15-35.27-18.4-60.24-41.94-76.35-72-20.66-38.53-16.53-89.9,9.84-122.16,13.83-16.92,32.65-27.21,55.95-30.58a145.53,145.53,0,0,1,20.9-1.58,110.5,110.5,0,0,1,35.93,5.75l-1.37-1c-25.49-18-44.52-39.86-56.59-65C188.27,343.23,184,319.11,186,293.27c1.87-24.63,8.92-45,21.55-62.43,15-20.63,35.61-35.3,63-44.85a275.56,275.56,0,0,1,90.87-15.22c3.12,0,6.29,0,9.43.15,24.93.8,49.33,6.24,70.87,11l5,1.13c8.44,1.9,16.41,3.71,24.5,4.83a13.37,13.37,0,0,0,1.68.12c1.41,0,1.46-.09,2-1.05a16.68,16.68,0,0,1,14.93-8.76c.49,0,1,0,1.47.05,7.75.6,13.61,6.51,14.58,14.72l.59,5c1,8.42,2.05,17.12,2.88,25.77,2.14,22.32,4.23,45,6.24,67l1.56,16.87c.38,4.11.72,8.48,1,13a21.94,21.94,0,0,1-.65,7.45,16.43,16.43,0,0,1-14.08,12.09,14.91,14.91,0,0,1-1.87.12c-4.56,0-12.52-2.74-13.68-12.95-1.54-6-3-12.1-4.42-18s-2.89-12-4.4-17.93c-5.51-21.56-11.57-38.91-23.23-53.48-12.11-15.12-27.63-24.83-47.43-29.69a145.48,145.48,0,0,0-34.9-4.61,101.67,101.67,0,0,0-30.54,4.5c-26.83,8.29-43.91,33.37-41.54,61,1.1,12.86,6.23,24.17,15.67,34.58,13.67,15.06,31.65,25.32,47.44,33.38,16.42,8.38,33.34,16.56,49.71,24.48,19.91,9.62,40.51,19.58,60.53,30,33.46,17.49,57.6,38.81,73.8,65.18,14.84,24.15,21.68,49.84,20.35,76.37-2.43,48.12-24.74,86-66.31,112.51-24.4,15.57-52.19,25.89-85,31.56A378.16,378.16,0,0,1,353.42,682.73Zm-61.94-128.9c-17.15,0-28.62,14.95-33.23,27.76-6.67,18.51-.56,36.18,17.21,49.77,12.1,9.25,26.73,14.67,46,17A201.58,201.58,0,0,0,342.57,650c34.12-.12,61.42-11,83.47-33.22,10.9-11,17.47-22.43,20.1-35C449.52,565.64,446,551,435.26,537c-9.37-12.25-22.71-20.92-35.58-28.75-16.11-9.81-33.46-18.52-50.24-26.94-7.52-3.77-15.29-7.67-22.92-11.65-5.15-2.68-10.45-5.37-15.57-8s-10-5.08-15-7.69a90.91,90.91,0,0,1,29.31,52.41c2.63,14.19,1.84,27.58-2.34,39.79-3.4,9.94-11.49,10.71-13.89,10.71a17.29,17.29,0,0,1-5.62-1A37.1,37.1,0,0,0,291.48,553.83Z"/><path class="cls-4" d="M361.41,182.65c3,0,6,0,9,.14,23.33.75,46,5.71,68.66,10.76,10.1,2.25,20.16,4.7,30.44,6.12a23.75,23.75,0,0,0,3.3.24c5.21,0,9.5-2,12.37-7.14a4.9,4.9,0,0,1,4.55-2.67,5.24,5.24,0,0,1,.56,0c2.4.18,3.44,2.11,3.69,4.27,1.21,10.15,2.47,20.29,3.44,30.47,2.68,27.92,5.22,55.86,7.8,83.79q.59,6.33,1,12.67a11,11,0,0,1-.24,3.49,4.64,4.64,0,0,1-4.09,3.48l-.42,0c-2.11,0-1.73-2.29-2-3.41-3.1-12.14-5.87-24.36-9-36.5-5.29-20.72-11.81-40.91-25.47-58-14-17.53-32.23-28.49-53.86-33.8a158.57,158.57,0,0,0-37.74-4.95,114.32,114.32,0,0,0-34,5c-32,9.9-52.72,40.11-49.87,73.35,1.36,15.9,8,29.71,18.72,41.54,14.29,15.75,32.16,26.45,50.83,36,36.49,18.62,73.83,35.5,110.14,54.48,28.08,14.68,52.36,33.49,69.18,60.86,13.11,21.34,19.86,44.63,18.6,69.56-2.25,44.75-23.12,79-60.84,103.1-24.71,15.77-51.89,24.9-80.61,29.86a364.16,364.16,0,0,1-62.14,5.41,348.85,348.85,0,0,1-37.89-2.06c-34.69-3.79-68.43-11.58-99.65-27.87-30-15.66-55.12-36.73-71.38-67-18.48-34.47-14.88-80.35,8.57-109,12.52-15.32,29.18-23.55,48.46-26.35a134.16,134.16,0,0,1,19.19-1.45c14.46,0,28.62,2.68,42.06,9.22,26.38,12.84,45.21,32.41,50.76,62.34,2.1,11.31,1.91,22.66-1.9,33.77-.62,1.83-1.33,2.68-2.65,2.68a5.65,5.65,0,0,1-1.79-.36A48.85,48.85,0,0,0,291.47,542c-22.6,0-38.06,18-44.4,35.61-8.52,23.66-.58,46.6,21.17,63.24,15.32,11.71,33,17.08,51.79,19.4a213.24,213.24,0,0,0,22.45,1.64c35.71-.1,66.78-11.3,92-36.73,11.38-11.47,19.94-24.89,23.3-40.9,4.2-20.06-.73-38.27-13.07-54.4-10.4-13.59-24.47-22.93-38.84-31.68-23.81-14.49-49.17-26.1-73.84-39-23.65-12.34-48-23.48-69.89-38.91-22.38-15.8-40.77-35.51-52.73-60.44-9.93-20.71-13.34-42.78-11.6-65.64,1.56-20.44,7.13-39.56,19.32-56.34,14.52-20,34.37-32.63,57.32-40.62a262.51,262.51,0,0,1,87-14.56m0-23.76a287.41,287.41,0,0,0-94.78,15.88c-29.37,10.23-52.49,26.74-68.73,49.09-14,19.21-21.74,41.62-23.79,68.51-2.13,27.95,2.54,54.09,13.87,77.71a169.82,169.82,0,0,0,29.89,43.24A160.46,160.46,0,0,0,198.12,415c-26.34,3.82-47.68,15.53-63.45,34.82-14.37,17.59-23.36,40.86-25.3,65.52-1.91,24.37,3.13,49.15,14.19,69.78,17.27,32.19,43.87,57.33,81.33,76.87C235.67,678.05,270,687.71,313,692.41a373.92,373.92,0,0,0,40.47,2.2,389.64,389.64,0,0,0,66.19-5.76C454,682.91,483.21,672,509,655.6c22.05-14.07,39.33-31.46,51.35-51.67,12.25-20.59,19.12-44.23,20.43-70.26,1.46-29-6-56.95-22.09-83.18-17.35-28.25-43-51-78.41-69.49-20.19-10.55-40.87-20.55-60.87-30.22-16.31-7.89-33.18-16-49.48-24.36-15.58-7.95-31.69-17.18-44-30.79-7.63-8.4-11.77-17.43-12.64-27.6-1.88-22,11.78-42,33.22-48.62a90.1,90.1,0,0,1,27-4,134.31,134.31,0,0,1,32.07,4.26c17.17,4.22,30.57,12.58,41,25.59s15.87,28.92,21,49c1.49,5.86,2.95,11.92,4.36,17.78,1.38,5.69,2.79,11.57,4.27,17.41,2.18,15.52,14.54,22.61,25.38,22.61a26.27,26.27,0,0,0,3.31-.21,28.48,28.48,0,0,0,24.09-20.71A33.69,33.69,0,0,0,530,319.74c-.3-4.58-.65-9.06-1-13.28l-1.56-16.89c-2-21.95-4.11-44.64-6.24-67-.84-8.78-1.89-17.54-2.91-26l-.59-5c-1.64-13.79-12.11-24.14-25.47-25.16-.8-.06-1.59-.09-2.38-.09a28.58,28.58,0,0,0-21.17,9.15c-6.25-1.05-12.63-2.49-19.31-4l-5-1.13c-22-4.91-47-10.48-73.07-11.32-3.26-.1-6.57-.15-9.81-.15ZM309,568.82c9.05,0,20.4-4.92,25.13-18.74,4.85-14.17,5.79-29.58,2.78-45.81a110.22,110.22,0,0,0-5.09-18.5c4.14,2.1,8.26,4.16,12.31,6.19,17.32,8.7,33.69,16.91,49.39,26.46,11.9,7.25,24.2,15.21,32.32,25.83,8.58,11.22,11.34,22.37,8.68,35.09-2.14,10.22-7.67,19.72-16.91,29-19.68,19.84-44.2,29.56-74.94,29.7a191.66,191.66,0,0,1-19.72-1.46c-17.11-2.11-29.91-6.78-40.27-14.7-13.69-10.47-18.15-22.69-13.25-36.31.74-2,7.59-19.9,22.05-19.9a25.37,25.37,0,0,1,8.08,1.48,28.81,28.81,0,0,0,9.44,1.63Z"/></g><path class="cls-5" d="M368.91,678.31a359.56,359.56,0,0,1-38.72-2.1c-40.87-4.47-73.39-13.59-102.34-28.69-34.49-18-58.88-41-74.56-70.2-19.89-37.07-15.94-86.46,9.37-117.44,13.14-16.06,31.06-25.84,53.27-29.06a142.68,142.68,0,0,1,20.29-1.53c16.5,0,31.77,3.36,45.39,10,30.88,15,49.35,37.84,54.9,67.79,2.5,13.46,1.77,26.12-2.17,37.62-2.34,6.81-7.18,7.83-9.86,7.83a13,13,0,0,1-4.24-.77A41.36,41.36,0,0,0,307,549.42c-19.36,0-32.17,16.46-37.25,30.57-7.35,20.41-.73,39.8,18.64,54.61,12.73,9.73,28,15.42,48.09,17.9A205.46,205.46,0,0,0,358,654.08c35.33-.12,63.64-11.4,86.53-34.48,11.5-11.6,18.45-23.73,21.25-37.1,3.59-17.18-.33-33.4-11.67-48.22-9.81-12.83-23.53-21.76-36.75-29.8-16.26-9.9-33.69-18.64-50.54-27.1-7.51-3.77-15.27-7.66-22.86-11.62-5.17-2.7-10.48-5.39-15.62-8-18.51-9.38-37.64-19.09-55.14-31.44C248.35,408.75,229.78,387.43,218,363c-10.09-21-14.23-44.42-12.32-69.51,1.81-23.81,8.6-43.52,20.75-60.24,14.46-19.9,34.41-34.08,61-43.33a271.4,271.4,0,0,1,89.47-15c3.07,0,6.2.05,9.3.14,24.52.79,48.72,6.18,70.07,10.94l5,1.12c8.53,1.93,16.58,3.75,24.86,4.89a15.46,15.46,0,0,0,2.26.17c2.89,0,4.39-.85,5.72-3.24a12.52,12.52,0,0,1,11.2-6.58c.38,0,.76,0,1.14,0,5.75.44,9.93,4.74,10.67,11l.6,5c1,8.38,2,17,2.86,25.64,2.14,22.31,4.22,45,6.24,66.93l1.56,16.89c.38,4.12.71,8.33,1,12.87a17.39,17.39,0,0,1-.5,6,12.24,12.24,0,0,1-10.49,9,10.4,10.4,0,0,1-1.34.09c-1.43,0-8.58-.45-9.47-9.38v-.06c-1.55-6.07-3-12.24-4.47-18.2s-2.9-12-4.43-18c-5.64-22.1-11.89-39.93-24-55.1-12.54-15.66-29.28-26.15-49.74-31.17A149.88,149.88,0,0,0,389,199.14a106.12,106.12,0,0,0-31.8,4.69c-28.76,8.89-47.08,35.8-44.54,65.43,1.17,13.63,6.81,26.11,16.77,37.08,14.13,15.56,32.53,26.08,48.66,34.31,16.46,8.4,33.4,16.59,49.79,24.52,19.89,9.61,40.45,19.56,60.42,30,32.75,17.13,56.35,37.94,72.13,63.63,14.38,23.4,21,48.27,19.72,73.92-2.35,46.67-24,83.38-64.34,109.13-23.91,15.26-51.19,25.38-83.41,30.95A373.77,373.77,0,0,1,368.91,678.31Z"/><path d="M376.9,182.5c3,0,6,0,9.05.14,23.34.75,46,5.71,68.66,10.76,10.1,2.25,20.17,4.7,30.44,6.12a23.75,23.75,0,0,0,3.3.24c5.21,0,9.5-2,12.37-7.14a4.9,4.9,0,0,1,4.55-2.67,5.24,5.24,0,0,1,.56,0c2.4.18,3.44,2.11,3.69,4.27,1.21,10.15,2.47,20.29,3.44,30.47,2.68,27.92,5.22,55.86,7.8,83.79q.59,6.33,1,12.67a11,11,0,0,1-.24,3.49,4.62,4.62,0,0,1-4.08,3.48l-.43,0c-2.11,0-1.73-2.29-2-3.41-3.1-12.14-5.87-24.36-9-36.5-5.29-20.72-11.81-40.92-25.47-58-14-17.53-32.23-28.49-53.86-33.8A158.57,158.57,0,0,0,389,191.53a114.32,114.32,0,0,0-34.05,5c-32,9.9-52.72,40.11-49.87,73.35,1.36,15.9,8,29.71,18.72,41.54,14.29,15.75,32.16,26.45,50.83,36,36.49,18.62,73.83,35.5,110.14,54.48,28.08,14.68,52.36,33.49,69.18,60.86,13.11,21.34,19.86,44.63,18.6,69.56-2.25,44.75-23.12,79-60.84,103.09-24.71,15.78-51.89,24.91-80.6,29.87a364.37,364.37,0,0,1-62.15,5.41A348.85,348.85,0,0,1,331,668.64c-34.69-3.79-68.43-11.58-99.65-27.87-30-15.66-55.12-36.73-71.38-67-18.48-34.47-14.88-80.35,8.57-109,12.52-15.32,29.19-23.55,48.46-26.35a134.16,134.16,0,0,1,19.19-1.45c14.46,0,28.62,2.68,42.07,9.22,26.37,12.84,45.2,32.41,50.75,62.34,2.1,11.31,1.91,22.66-1.89,33.77-.63,1.83-1.34,2.68-2.66,2.68a5.65,5.65,0,0,1-1.79-.36A48.79,48.79,0,0,0,307,541.8c-22.61,0-38.07,18-44.41,35.61C254,601.07,262,624,283.73,640.65c15.32,11.71,33,17.08,51.79,19.4A213.24,213.24,0,0,0,358,661.69c35.71-.1,66.78-11.3,92-36.73,11.38-11.47,20-24.89,23.3-40.9,4.2-20.06-.73-38.28-13.07-54.4-10.4-13.59-24.47-22.93-38.84-31.68-23.81-14.49-49.17-26.1-73.84-39-23.65-12.34-48-23.48-69.89-38.91-22.38-15.8-40.77-35.51-52.73-60.44C215,339,211.55,316.88,213.29,294c1.56-20.44,7.13-39.56,19.32-56.34,14.52-20,34.37-32.63,57.32-40.62a262.55,262.55,0,0,1,87-14.56m0-15.23a279,279,0,0,0-92,15.41c-28.08,9.78-49.22,24.84-64.63,46-13,17.89-20.26,38.87-22.18,64.13-2,26.44,2.38,51.13,13,73.38,10.34,21.56,25.68,40.74,45.7,57.19a120.24,120.24,0,0,0-20.66-1.75,149.3,149.3,0,0,0-21.38,1.61c-24.15,3.5-43.68,14.19-58.06,31.78-13.28,16.25-21.59,37.83-23.39,60.78-1.79,22.75,2.9,45.86,13.2,65.07,16.43,30.63,41.86,54.62,77.75,73.34,29.81,15.56,63.19,24.94,105,29.51a364.38,364.38,0,0,0,39.54,2.15,380.77,380.77,0,0,0,64.74-5.63c33.23-5.74,61.43-16.22,86.2-32,20.93-13.36,37.28-29.79,48.62-48.85,11.52-19.38,18-41.69,19.23-66.32,1.38-27.21-5.63-53.55-20.83-78.28-16.52-26.9-41.09-48.61-75.1-66.39-20.07-10.49-40.69-20.46-60.63-30.1-16.35-7.91-33.26-16.09-49.64-24.45s-33.21-18-46.48-32.65c-8.94-9.84-13.79-20.51-14.82-32.61-2.24-26,13.89-49.69,39.2-57.51A98.64,98.64,0,0,1,389,206.76a142.47,142.47,0,0,1,34.11,4.5c19.06,4.68,34,14,45.61,28.54,11.29,14.1,17.2,31.08,22.6,52.22,1.51,5.92,3,12,4.4,17.89s2.85,11.84,4.36,17.8c1.34,10.82,9.44,15.68,17,15.68a19.34,19.34,0,0,0,2.27-.14,19.73,19.73,0,0,0,16.9-14.52,25.14,25.14,0,0,0,.77-8.57c-.3-4.52-.65-8.92-1-13.06l-1.56-16.87c-2-22-4.11-44.65-6.24-67-.83-8.69-1.88-17.4-2.89-25.83l-.59-5c-1.17-9.83-8.26-16.93-17.65-17.65-.57,0-1.15-.07-1.72-.07a20.18,20.18,0,0,0-17.45,9.8l-.69-.07c-7.95-1.1-15.86-2.89-24.23-4.79l-5-1.12c-21.67-4.83-46.24-10.3-71.48-11.11-3.17-.1-6.38-.16-9.54-.16ZM324.48,560.13c3,0,12.93-.93,17.06-13,4.37-12.76,5.19-26.72,2.46-41.48a94.72,94.72,0,0,0-17.46-40.31c4.61,2.34,9.33,4.74,13.93,7.13,7.65,4,15.43,7.9,23,11.68,16.71,8.39,34,17.06,50,26.8,12.59,7.67,25.64,16.14,34.66,27.93,10.07,13.16,13.42,26.91,10.26,42-2.49,11.88-8.77,22.78-19.2,33.3-21.38,21.56-47.9,32.1-81.07,32.23A199.74,199.74,0,0,1,337.38,645c-18.68-2.31-32.79-7.52-44.4-16.4s-24-24.16-16.1-46C281.13,570.79,291.55,557,307,557A33.81,33.81,0,0,1,317.79,559a20.51,20.51,0,0,0,6.69,1.17Z"/><g class="cls-2"><path class="cls-3" d="M820.58,683.7a14.16,14.16,0,0,1-2.88-.31,15.29,15.29,0,0,1-2.54-.41h-.33l-.66,0H597.39l-6.75-1.73-1.39-.79-.59-.35-.1-.06a14,14,0,0,1-3.94-3.57c-4.22-5.5-3-14.78-.32-19l.65-1,.85-.86a18.41,18.41,0,0,1,11-5A17.87,17.87,0,0,0,600,650c.38-.1.78-.17,1.18-.24,1.78-.26,3.49-.49,5.2-.72s3.15-.42,4.7-.65a31.06,31.06,0,0,0,6.23-1.43l.41-.18.43-.15A24,24,0,0,0,629.3,639a40,40,0,0,0,4.67-8.52,68.94,68.94,0,0,0,3.53-16.3l0-.37.07-.37c.19-1,.29-2.24.41-3.64s.23-2.81.45-4.38a112.09,112.09,0,0,0,.48-11.57v-1.17c.32-10,.37-20,.37-28.35V383.83c0-11.51,0-23.25,0-34.72l-.19-23.38c-.17-19.76-.2-39.69-.21-56.58V269c0-6.29,0-12.79-.46-18.86-.21-1.44-.32-2.79-.43-4s-.2-2.34-.36-3.16l0-.12c-.07-.36-.12-.73-.16-1.09a99.7,99.7,0,0,0-2.1-11.68l-.06-.27-.17-.94a48.53,48.53,0,0,0-1.41-6.58c-2.5-7.59-6.62-12.45-13.35-15.7a40.77,40.77,0,0,0-12.8-3.69c-3.53-.44-7.34-.88-11.28-1.1a18.36,18.36,0,0,1-6.85-1.29A14.76,14.76,0,0,1,580,187.92a17.58,17.58,0,0,1,0-3.45,19.7,19.7,0,0,1,.74-4.16,14.61,14.61,0,0,1,14-10.51H760.58a13.61,13.61,0,0,1,1.84.12h10.83c6.58,0,13.39.05,20.35.16,8.75.07,17.43.07,26.63.07h.21c6,.1,12.15.16,18.08.22,6.27.07,12.75.13,19.15.25,8.38,0,15.76.34,22.56,1l1.6.17c4.15.45,8.43.92,12.59,1.61a187.07,187.07,0,0,1,22,4.93,170,170,0,0,1,67.82,37.47,134.34,134.34,0,0,1,23.09,27.26,131.56,131.56,0,0,1,17.22,38.3c1.66,6.17,2.71,12.5,3.64,18.08.26,1.52.41,3,.54,4.24.1,1.05.2,2,.34,2.75a14.58,14.58,0,0,1,.24,2.55,16,16,0,0,0,.16,2.72,16.13,16.13,0,0,1,.22,2c0,1,0,2.11,0,3.16V335a42.71,42.71,0,0,1-.33,5.95c-.16,3.16-.55,6.19-.9,8.88-.08.66-.28,2.24-.28,2.24l0,.28c-.92,5.34-2,11.05-3.5,16.95A154.81,154.81,0,0,1,989,436.33c-9.67,11.25-21.42,21.33-35.92,30.8-18.2,11.94-39.38,21-62.91,26.9a247.28,247.28,0,0,1-29.11,5.37c-4.42.59-8.69,1.06-14.31,1.59-.4,0-.79.06-1.19.07-1.46,0-3.08.12-4.79.22-2.09.13-4.25.26-6.54.28-5.09.48-10.18.5-15.1.51-7,.45-13.92.45-20,.45-6.4,0-12.71-.07-19.25-.2,0,3.88,0,7.54.08,11.16.42,10.55.44,21.18.45,30.57,0,5.77.11,11.74.22,17.51s.21,11.73.21,17.52c.06,3,.15,6,.22,8.93.16,5.64.32,11.46.35,17.43.08.91.15,1.85.22,2.79a38.55,38.55,0,0,0,.77,6.39l.09.37.07.38a85.83,85.83,0,0,0,3.77,13.68c1.82,4.56,3.53,7.51,5.69,9.84l.25.27a28.1,28.1,0,0,0,11.32,7.63l.31.13.31.14a31.62,31.62,0,0,0,8.53,2.45c.71.08,1.4.18,2.08.28l1.49.2a14.77,14.77,0,0,1,2.71-.33h.36a27.33,27.33,0,0,1,7.69.84,16.1,16.1,0,0,1,11.13,9.44,14,14,0,0,1,1,5.29,25.07,25.07,0,0,1-.81,7,15.47,15.47,0,0,1-8.27,10.09l-2.44,1.17H826.2a14,14,0,0,1-2.67.25ZM779.94,331.65a12.7,12.7,0,0,1,.9,4.75V469.71l2.2-.33.43-.06a170.57,170.57,0,0,0,17.11-3.65c21.08-6.43,38-17.65,51.63-34.3,3.73-4.62,7.25-9.8,11.11-15.61a170.15,170.15,0,0,0,20.14-44.53c1.67-5.83,3.12-12.08,4.46-19.14.19-1.63.39-3.29.6-5,.25-2,.5-4.09.72-6.09.32-4.15.48-8.52.48-13,0-5.12-.28-10.57-.89-17.11l-.29-2.28c-.36-2.81-.72-5.59-1.13-8.46-.61-3.6-1.35-7.42-2.07-11.13l-.66-3.45a200.39,200.39,0,0,0-6.45-20.68,102.8,102.8,0,0,0-13.09-24.74,87.56,87.56,0,0,0-41.87-31.66,103,103,0,0,0-28.92-5.76l-.3,0c-1.1-.1-2.38-.15-3.73-.21s-2.64-.11-4.06-.21h-1c-1.7,0-3.54,0-5.37,0,0,9.92,0,20.41,0,30.86.08,7,.12,13.64.12,20.25q0,14.08,0,28l0,10.21Q780,311.67,779.94,331.65Z"/><path class="cls-4" d="M760.59,181.68a3.27,3.27,0,0,1,.53,0,6.13,6.13,0,0,0,1.13.07h10.43c6.81,0,13.67,0,20.74.16,8.88.07,17.66.07,26.81.07,12.44.23,24.89.25,37.33.48,7.13,0,14.36.25,21.49,1,4.39.48,9.1,1,13.4,1.68a176.54,176.54,0,0,1,20.65,4.62,157.07,157.07,0,0,1,63.16,34.86,122.45,122.45,0,0,1,21.08,24.89,119.07,119.07,0,0,1,15.73,34.94c1.49,5.52,2.46,11.26,3.41,17,.4,2.33.47,4.87.91,7.21a2,2,0,0,1,0,.42,26.89,26.89,0,0,0,.35,4.77c0,.12,0,.24,0,.35,0,.92,0,1.84,0,2.75V334.8a29.86,29.86,0,0,1-.29,4.95c-.14,3.58-.67,7.1-1.09,10.55-1,5.48-1.92,10.74-3.3,16a142.58,142.58,0,0,1-33.08,62.16c-9.64,11.24-21.06,20.58-33.51,28.72-18.19,11.93-38.29,20.05-59.35,25.33a234.13,234.13,0,0,1-27.77,5.11c-4.74.63-9.09,1.09-13.83,1.54h-.19c-3.77.05-7.75.49-11.72.5h-.19c-4.74.48-9.8.49-14.73.5h-.14c-6.68.44-13.19.45-19.54.45-7.19,0-13.9-.09-20.64-.24l-1.83,0c-1.07,0-2.06,0-3.22.11a7.61,7.61,0,0,0-3,.64,2.56,2.56,0,0,0-2.19,1.92,2,2,0,0,0-.25,1,36.12,36.12,0,0,0,0,4.29c0,5.28,0,10.46.08,15.5.41,10.09.43,20.19.45,30.27,0,11.66.43,23.65.43,35.14.19,9,.53,17.62.58,26.7a1.34,1.34,0,0,0,0,.2c.35,3.8.38,7.59,1.32,11.39a97.72,97.72,0,0,0,4.36,15.78A42.39,42.39,0,0,0,783.32,647a39.91,39.91,0,0,0,15.83,10.84,43.45,43.45,0,0,0,11.93,3.46,57.94,57.94,0,0,0,6.22.68h0a2.69,2.69,0,0,0,.89-.16,3.47,3.47,0,0,1,1.17-.25A15.55,15.55,0,0,1,824,662a4.34,4.34,0,0,1,3.17,2.45,2.29,2.29,0,0,1,.15.86,13.18,13.18,0,0,1-.43,3.88,3.61,3.61,0,0,1-1.92,2.38,1.72,1.72,0,0,0-.63.1,2.47,2.47,0,0,1-.86.15h-2.94a2.55,2.55,0,0,1-.68-.12,6.74,6.74,0,0,0-1.34-.16,2.78,2.78,0,0,1-.49-.08,12.9,12.9,0,0,0-3.24-.37l-.88,0H598.89l-3.75-1-.44-.26a2.22,2.22,0,0,1-.64-.62c-.55-.71-.31-4.51.24-5.36a8.91,8.91,0,0,1,2.87-1.43,26.39,26.39,0,0,0,5.63-.92l.24,0c3.26-.49,6.62-.89,9.86-1.37a39,39,0,0,0,9.16-2.28,35.84,35.84,0,0,0,16.7-11.65A52.55,52.55,0,0,0,645,634.81a79.34,79.34,0,0,0,4.26-19.22c.52-2.88.53-5.75,1-8.62a130.44,130.44,0,0,0,.57-13.9c.31-9.57.38-19.15.38-28.72V383.83c0-11.52,0-23.26,0-34.75-.07-7.89-.13-15.74-.19-23.45q-.24-28.35-.21-56.48c0-6.75,0-13.58-.52-20.25a1.1,1.1,0,0,0,0-.18c-.41-2.69-.43-5.4-.93-8,0-.05,0-.1,0-.15A110.83,110.83,0,0,0,647,227.46a61.81,61.81,0,0,0-1.91-8.81c-3.4-10.31-9.58-18-19.5-22.74a53.09,53.09,0,0,0-16.48-4.78c-4.23-.53-8.21-1-12.41-1.19a6.63,6.63,0,0,1-2.88-.48,2.84,2.84,0,0,1-1.34-.94,2.62,2.62,0,0,1-.61-1.51,4.27,4.27,0,0,1,0-1.38,7.19,7.19,0,0,1,.32-2,2.66,2.66,0,0,1,2.55-1.91H760.59M774.85,482c.27,0,.54,0,.81,0a62.31,62.31,0,0,0,9.57-.95,187.17,187.17,0,0,0,18.56-4c23.14-7,42.28-19.54,57.6-38.2,4.26-5.27,8.09-11,11.92-16.7a183.62,183.62,0,0,0,21.59-47.77c1.91-6.69,3.47-13.62,4.78-20.57.43-3.83,1-7.85,1.39-11.72.37-4.79.53-9.51.53-14.13,0-6.22-.39-12.26-1-18.42-.49-3.76-.94-7.43-1.49-11.25-.84-5-1.91-10.29-2.87-15.32a210.15,210.15,0,0,0-6.91-22.25,114.89,114.89,0,0,0-14.58-27.53,99.13,99.13,0,0,0-47.43-35.9,115.59,115.59,0,0,0-32.23-6.46c-2.68-.24-5.54-.24-8.41-.47h-1.47c-3.5,0-7.19,0-10.55.23a7.32,7.32,0,0,0-2.37.24,4.49,4.49,0,0,0-3.8,3.83,1.2,1.2,0,0,1-.27.72,29.47,29.47,0,0,0-.26,4.78q0,16.51.06,33c.07,6.7.11,13.4.11,20.2,0,12.82,0,25.52,0,38.19q0,21.19-.06,42.36v1c0,.38.13.71.48.81a.53.53,0,0,1,.42.62V477.24c.1.65.53,1.45.54,1.91a3.52,3.52,0,0,0,2.86,2.67,12.82,12.82,0,0,0,2.49.22M760.59,157.92H594.73A26.54,26.54,0,0,0,569.35,177a30.9,30.9,0,0,0-1.17,6.44,29.59,29.59,0,0,0,0,5.38,26.18,26.18,0,0,0,6.08,14.94A26.64,26.64,0,0,0,585,211.54a29.7,29.7,0,0,0,10.84,2.15c3.52.21,7,.61,10.28,1a29.38,29.38,0,0,1,9.16,2.63c3.15,1.54,5.46,3.54,7.17,8.68a46.93,46.93,0,0,1,1,4.87l.1.58.1.55.12.55v.08a89.51,89.51,0,0,1,1.88,10.26c.08.77.19,1.55.34,2.3,0,.32.13,1.28.2,2,.1,1.19.23,2.62.44,4.22.4,5.52.4,11.39.4,17.59v.15c0,17.81,0,37,.21,56.68l.09,10.94.1,12.45c0,12.46,0,25,0,34.61V564.35c0,8.28-.05,18.09-.36,28v1.43c0,3.79-.07,7.37-.38,10.19-.26,1.85-.4,3.53-.51,4.89-.08,1-.17,2-.26,2.5l-.13.73-.09.75c-.71,6-1.55,10.05-2.8,13.36a28.63,28.63,0,0,1-3,5.62,12.12,12.12,0,0,1-5.62,3.65l-.86.3-.62.27c-.73.22-2.47.5-3.51.67-1.41.21-2.9.41-4.47.62s-3.46.46-5.27.73a22.06,22.06,0,0,0-2.29.45l-1.23.28a30.14,30.14,0,0,0-18.71,8.57L575.61,649l-1.3,2a28.58,28.58,0,0,0-4.27,14.3c-.39,7.21,1.35,13.38,5.16,18.35a25.9,25.9,0,0,0,7.23,6.52l.89.52,2.8,1.61,3.12.8,1,.25,2.78.71,2.91.74h218c.7.13,1.41.23,2.12.3a25.5,25.5,0,0,0,4.52.41h2.94a27.21,27.21,0,0,0,3.63-.25h3.28l4.89-2.35a27.41,27.41,0,0,0,14.59-17.75,36.37,36.37,0,0,0,1.21-10,26.08,26.08,0,0,0-1.94-9.81A28,28,0,0,0,830.1,639a38.85,38.85,0,0,0-10.72-1.23h-.75c-.83,0-1.65.09-2.47.19-.5-.07-1.08-.16-1.71-.23a20.11,20.11,0,0,1-5.17-1.43l-.62-.29-.64-.26c-4-1.61-5.68-3.14-6.8-4.42l-.24-.28-.25-.27a19.82,19.82,0,0,1-3.29-6,72.72,72.72,0,0,1-3.19-11.58l-.14-.76-.18-.74a34.67,34.67,0,0,1-.45-4.34c-.06-.77-.12-1.62-.19-2.51,0-5.95-.2-11.67-.35-17.21-.08-2.88-.16-5.78-.22-8.73,0-5.86-.11-11.83-.22-17.61s-.21-11.63-.21-17.27c0-9.12,0-19.36-.41-29.7,2.42,0,4.83,0,7.25,0,6.14,0,13.08,0,20.39-.46,4.74,0,10,0,15.35-.51,2.4,0,4.63-.17,6.63-.29,1.58-.1,3.07-.19,4.27-.21.67,0,1.39,0,2.11-.11,5.79-.55,10.19-1,14.73-1.64h0a258,258,0,0,0,30.46-5.63c24.81-6.23,47.18-15.81,66.5-28.48,15.37-10.05,27.91-20.81,38.3-32.87a166.55,166.55,0,0,0,38.28-72c1.65-6.32,2.77-12.53,3.69-17.86l.1-.56.07-.56q.11-.95.24-1.89c.36-2.79.76-5.9,1-9.32a55.62,55.62,0,0,0,.37-7V316.87c0-1,0-2.27-.06-3.65a25.32,25.32,0,0,0-.35-3.31c0-.14,0-.41,0-.92a26.06,26.06,0,0,0-.45-4.74c0-.26-.13-1.1-.19-1.72-.14-1.4-.32-3.13-.65-5.06-.92-5.55-2.06-12.44-3.89-19.2a143,143,0,0,0-18.69-41.6,145.91,145.91,0,0,0-25-29.55l-.05,0,0-.05A181.7,181.7,0,0,0,919.76,167a199.06,199.06,0,0,0-23.33-5.24c-4.56-.76-9.23-1.27-13.36-1.71l-1.44-.16h-.21c-7.17-.72-14.9-1.07-23.63-1.08-6.41-.12-12.88-.18-19.13-.24-5.92-.06-12-.13-18-.23h-.42c-9.14,0-17.77,0-26.51-.07-7-.1-13.73-.13-20.29-.16H763.07c-.84-.08-1.66-.12-2.48-.12Zm31.22,75.15c0-6.23,0-12.47,0-18.6l1.2.08.31,0,.3,0a91.92,91.92,0,0,1,25.66,5.08,74.89,74.89,0,0,1,36.25,27.42A91.19,91.19,0,0,1,867.07,269V269a188.43,188.43,0,0,1,6,19.13c.21,1.05.41,2.11.62,3.18.69,3.56,1.4,7.24,2,10.64.39,2.75.73,5.42,1.1,8.24l.25,2c.56,6.08.82,11.11.82,15.81,0,4.19-.14,8.09-.43,11.9-.21,1.85-.44,3.74-.68,5.74-.19,1.56-.38,3.11-.56,4.63-1.25,6.54-2.6,12.31-4.11,17.61l0,.06,0,.05a158.72,158.72,0,0,1-18.68,41.32c-3.77,5.65-7,10.33-10.37,14.57-12.07,14.68-27,24.6-45.61,30.33-1.64.42-3.18.8-4.64,1.15v-119a24.31,24.31,0,0,0-.9-6.58q0-19.05.06-38.13l0-10.59c0-9,0-18.37,0-27.66,0-6.65,0-13.32-.12-20.37Z"/></g><path class="cls-5" d="M805.34,679.28a9.8,9.8,0,0,1-2.27-.28H803a9.74,9.74,0,0,1-2.06-.32,5.58,5.58,0,0,0-1.32-.12H582.69L577,677.12l-.89-.51c-.21-.11-.41-.23-.61-.36a9.55,9.55,0,0,1-2.75-2.51c-3.09-4-1.83-11.41-.12-14.09l.42-.65.55-.56a13.31,13.31,0,0,1,4.1-2.79,10.2,10.2,0,0,1,4-.92,20.8,20.8,0,0,0,4.09-.71c.33-.08.59-.13.85-.17,1.71-.26,3.4-.48,5.08-.71s3.24-.43,4.83-.67a33.51,33.51,0,0,0,7.25-1.72l.26-.12.28-.1a28.31,28.31,0,0,0,13.14-9.07,45.07,45.07,0,0,0,5.25-9.57,73.38,73.38,0,0,0,3.79-17.35l0-.24,0-.23c.23-1.23.34-2.61.46-4.06s.23-2.71.44-4.18a114.92,114.92,0,0,0,.5-12.09l0-1.07c.32-10.07.37-20,.37-28.47V383.68c0-11.51,0-23.25,0-34.73l-.19-23.41c-.17-19.75-.2-39.66-.21-56.54v-.16c0-6.41,0-13-.48-19.31-.2-1.35-.32-2.65-.43-3.9a35.85,35.85,0,0,0-.42-3.6c-.06-.32-.1-.6-.13-.87A104,104,0,0,0,624.3,229l-.09-.44-.1-.57a50.85,50.85,0,0,0-1.56-7.17c-2.85-8.69-7.8-14.49-15.56-18.23a45.56,45.56,0,0,0-14.12-4.09c-3.64-.45-7.58-.91-11.68-1.13a14.13,14.13,0,0,1-5.43-1,10.46,10.46,0,0,1-4.41-3.15,10.13,10.13,0,0,1-2.36-5.81,12.49,12.49,0,0,1,0-2.71,15.21,15.21,0,0,1,.6-3.4,10.31,10.31,0,0,1,9.86-7.41H745.34a9.12,9.12,0,0,1,1.53.12h11.58c6.43,0,13.07.05,19.84.16,8.8.07,17.49.07,26.69.07h.14c6,.11,12.17.17,18.11.23,6.28.07,12.76.13,19.16.25a221.3,221.3,0,0,1,22.18,1l1.53.16c4.09.45,8.33.9,12.37,1.58A183,183,0,0,1,900,182.32a165.58,165.58,0,0,1,66.11,36.52,130.18,130.18,0,0,1,22.37,26.41,127.07,127.07,0,0,1,16.68,37.09,178.28,178.28,0,0,1,3.56,17.73c.23,1.31.37,2.64.5,3.93.11,1.13.22,2.21.39,3.1a9.75,9.75,0,0,1,.17,1.78,20.08,20.08,0,0,0,.23,3.47,10.71,10.71,0,0,1,.15,1.4c0,1,.05,2,.05,3.06v18a38.4,38.4,0,0,1-.31,5.55c-.15,3.05-.52,5.94-.88,8.74-.09.67-.27,2.16-.27,2.16l0,.18c-.9,5.27-1.92,10.9-3.43,16.65a150.42,150.42,0,0,1-34.74,65.26c-9.41,11-20.87,20.79-35,30.06-17.82,11.68-38.57,20.55-61.66,26.34a242.45,242.45,0,0,1-28.6,5.27c-4.32.57-8.54,1-14.13,1.57-.26,0-.52,0-.79.05-1.6,0-3.28.12-5.05.23-2.1.13-4.26.26-6.5.27-5,.49-10,.5-14.95.51h-.07c-7,.45-13.82.45-19.87.45-6.91,0-13.71-.08-20.82-.24l-1.66,0h-1v.3c0,5.47,0,10.41.08,15.3.42,10.53.44,21.12.45,30.46,0,5.8.11,11.78.22,17.57s.21,11.73.21,17.5c.06,3,.15,6,.23,9,.15,5.67.31,11.53.34,17.51.09,1,.16,1.93.23,2.9a42.21,42.21,0,0,0,.89,7.11l.06.24,0,.24a89.6,89.6,0,0,0,4,14.44,34.91,34.91,0,0,0,6.55,11.22l.15.18a32.63,32.63,0,0,0,12.94,8.78l.21.08.2.1a35.52,35.52,0,0,0,9.74,2.8l2.07.28c.89.13,1.69.24,2.42.3a10.56,10.56,0,0,1,2.52-.38h.22a22.94,22.94,0,0,1,6.61.71A11.86,11.86,0,0,1,819,661.4a10,10,0,0,1,.72,3.73,20.09,20.09,0,0,1-.68,5.83,11.29,11.29,0,0,1-6,7.32l-1.56.75h-1a9.89,9.89,0,0,1-2.25.25ZM760.43,332.44a8.39,8.39,0,0,1,.9,3.81v138a59,59,0,0,0,7.11-.8l.42-.06a175.36,175.36,0,0,0,17.63-3.76c22-6.68,39.54-18.36,53.77-35.7,3.88-4.79,7.47-10.08,11.41-16a174.69,174.69,0,0,0,20.66-45.7c1.71-6,3.2-12.39,4.57-19.65.2-1.67.4-3.37.61-5.07.26-2.08.51-4.18.74-6.23.33-4.31.5-8.7.5-13.41,0-5.28-.29-10.87-.92-17.58l-.31-2.41c-.36-2.82-.72-5.62-1.13-8.51-.61-3.65-1.36-7.5-2.08-11.23-.24-1.21-.47-2.42-.7-3.62A205.71,205.71,0,0,0,867,263.27a107.35,107.35,0,0,0-13.62-25.74,91.81,91.81,0,0,0-43.87-33.18,107.19,107.19,0,0,0-30.11-6l-.19,0c-1.21-.11-2.54-.16-3.94-.22s-2.67-.11-4.08-.22H770c-3,0-6.5,0-9.61.19,0,.6,0,1.25,0,2,0,10.56,0,21.81,0,33,.08,6.94.12,13.57.12,20.24,0,9.22,0,18.36,0,27.49l0,10.72Q760.45,312,760.43,332.44Z"/><path d="M745.34,181.53a3.29,3.29,0,0,1,.54.05,6.13,6.13,0,0,0,1.13.07h10.43c6.81,0,13.67,0,20.74.16,8.87.07,17.66.07,26.8.07,12.45.22,24.89.25,37.34.48a214.58,214.58,0,0,1,21.49,1c4.39.48,9.1,1,13.4,1.68a176.54,176.54,0,0,1,20.65,4.62A157.14,157.14,0,0,1,961,224.48a122.45,122.45,0,0,1,21.08,24.89,119.07,119.07,0,0,1,15.73,34.94c1.49,5.51,2.45,11.26,3.4,17,.41,2.33.48,4.87.92,7.21a2,2,0,0,1,0,.42,26.89,26.89,0,0,0,.35,4.77c0,.12,0,.24,0,.35,0,.92,0,1.84,0,2.75v17.84a29.86,29.86,0,0,1-.29,5c-.14,3.58-.67,7.1-1.1,10.55-.94,5.48-1.91,10.74-3.29,16a142.58,142.58,0,0,1-33.08,62.16c-9.64,11.24-21.06,20.58-33.51,28.72-18.19,11.93-38.29,20-59.35,25.33a234.11,234.11,0,0,1-27.77,5.1c-4.74.64-9.09,1.1-13.83,1.55h-.19c-3.77.05-7.75.49-11.72.5h-.2c-4.74.48-9.79.49-14.72.5h-.14c-6.68.44-13.19.45-19.54.45-7.19,0-13.9-.09-20.64-.24l-1.83,0c-1.07,0-2.06,0-3.22.11a7.61,7.61,0,0,0-3,.64A2.56,2.56,0,0,0,753,492.9a2,2,0,0,0-.25,1,36.12,36.12,0,0,0,0,4.29c0,5.28,0,10.46.08,15.5.41,10.09.43,20.19.45,30.27,0,11.66.43,23.65.43,35.14.19,9,.52,17.62.58,26.7a1.34,1.34,0,0,0,0,.2c.35,3.8.37,7.59,1.32,11.39A97.72,97.72,0,0,0,760,633.13a42.39,42.39,0,0,0,8.09,13.69,39.91,39.91,0,0,0,15.83,10.84,43.45,43.45,0,0,0,11.93,3.46,57.94,57.94,0,0,0,6.22.68h0a2.69,2.69,0,0,0,.89-.16,3.47,3.47,0,0,1,1.17-.25,15.55,15.55,0,0,1,4.66.46A4.34,4.34,0,0,1,812,664.3a2.29,2.29,0,0,1,.15.86,13.18,13.18,0,0,1-.43,3.88,3.61,3.61,0,0,1-1.92,2.38,1.72,1.72,0,0,0-.63.1,2.51,2.51,0,0,1-.86.15h-2.94a2.7,2.7,0,0,1-.69-.12,6.55,6.55,0,0,0-1.33-.16,2.64,2.64,0,0,1-.49-.08,12.9,12.9,0,0,0-3.24-.37l-.88,0H583.64l-3.75-1-.43-.26a2.39,2.39,0,0,1-.65-.62c-.54-.71-.3-4.51.25-5.36a5.67,5.67,0,0,1,1.81-1.18,2.94,2.94,0,0,1,1.06-.25,26.19,26.19,0,0,0,5.62-.92l.24,0c3.27-.49,6.62-.89,9.87-1.37a39,39,0,0,0,9.16-2.28,35.84,35.84,0,0,0,16.7-11.65,52.55,52.55,0,0,0,6.28-11.41,79.32,79.32,0,0,0,4.26-19.23c.52-2.87.53-5.74,1-8.61a127.91,127.91,0,0,0,.58-13.9c.31-9.57.38-19.15.38-28.72V383.68c0-11.52,0-23.26,0-34.75-.07-7.89-.13-15.74-.19-23.45q-.24-28.35-.21-56.48c0-6.75,0-13.58-.52-20.25a1.1,1.1,0,0,0,0-.18c-.41-2.69-.43-5.4-.93-8,0-.05,0-.1,0-.15a110.83,110.83,0,0,0-2.34-13.13,63.21,63.21,0,0,0-1.91-8.81c-3.4-10.31-9.58-17.95-19.5-22.74A53.15,53.15,0,0,0,593.81,191c-4.22-.53-8.2-1-12.4-1.19a6.78,6.78,0,0,1-2.88-.48,2.92,2.92,0,0,1-1.35-.94,2.71,2.71,0,0,1-.6-1.51,4.27,4.27,0,0,1,0-1.38,7.19,7.19,0,0,1,.32-2,2.65,2.65,0,0,1,2.55-1.91H745.34m14.27,300.36c.27,0,.54,0,.81,0a62.31,62.31,0,0,0,9.57-.95,187.17,187.17,0,0,0,18.56-4c23.14-7,42.28-19.54,57.6-38.2,4.26-5.27,8.09-11,11.92-16.7a184,184,0,0,0,21.59-47.77c1.91-6.69,3.47-13.62,4.77-20.57.44-3.83,1-7.85,1.4-11.72.37-4.79.53-9.51.53-14.13,0-6.22-.39-12.26-1-18.42-.49-3.76-.95-7.43-1.49-11.25-.84-5-1.91-10.29-2.87-15.32a210.15,210.15,0,0,0-6.91-22.25,115.25,115.25,0,0,0-14.58-27.53,99.11,99.11,0,0,0-47.44-35.9,115.45,115.45,0,0,0-32.22-6.46c-2.68-.24-5.54-.24-8.41-.47H770c-3.5,0-7.19,0-10.55.23a7.28,7.28,0,0,0-2.37.24,4.49,4.49,0,0,0-3.8,3.83,1.2,1.2,0,0,1-.27.72,29.47,29.47,0,0,0-.26,4.78q0,16.52,0,33c.08,6.7.12,13.4.12,20.2,0,12.82,0,25.51,0,38.19q0,21.19-.06,42.36v1c0,.37.13.71.48.81a.53.53,0,0,1,.42.62V477.09c.1.65.53,1.45.54,1.91a3.52,3.52,0,0,0,2.86,2.67,12.82,12.82,0,0,0,2.49.22M745.34,166.3H579.49a18,18,0,0,0-17.18,12.93,23.24,23.24,0,0,0-.87,4.81,21.41,21.41,0,0,0,0,4A18.12,18.12,0,0,0,573,203.48a21.2,21.2,0,0,0,8,1.52c3.82.22,7.55.65,11,1.08a37.88,37.88,0,0,1,11.79,3.41c5.82,2.81,9.4,7.06,11.61,13.74a49.37,49.37,0,0,1,1.28,6.07l.1.58.06.35.07.35,0,.08a97.31,97.31,0,0,1,2,11.27c.05.48.12,1,.22,1.53s.22,1.72.32,2.83.23,2.58.44,4.07c.44,5.89.44,12,.44,18.49V269c0,17.79,0,37,.21,56.61l.09,11,.1,12.44c0,12.44,0,25.06,0,34.67V564.2c0,8.35,0,18.24-.37,28.23v1.24c0,4.06-.07,7.9-.44,11.18-.23,1.66-.36,3.18-.47,4.53s-.21,2.45-.37,3.32l-.08.47-.06.48c-.8,6.82-1.8,11.45-3.32,15.47a37.3,37.3,0,0,1-4.21,7.71,20.63,20.63,0,0,1-9.6,6.52l-.55.19-.53.23a29.6,29.6,0,0,1-5.4,1.18c-1.49.23-3,.43-4.64.65s-3.41.45-5.15.71c-.52.08-1,.18-1.55.31a17,17,0,0,1-2.56.5,18.07,18.07,0,0,0-6.86,1.6,20.67,20.67,0,0,0-6.4,4.41l-1.08,1.11-.84,1.29c-3.25,5.07-4.9,15.83.48,22.85a17.67,17.67,0,0,0,4.87,4.4l.72.42,1.79,1,2,.51,3.75,1,1.86.47H799.49a18,18,0,0,0,2.5.39,16.48,16.48,0,0,0,3.35.34h2.94a17.29,17.29,0,0,0,3-.25h2l3.13-1.5a18.83,18.83,0,0,0,10-12.24,28.16,28.16,0,0,0,.92-7.8,17.6,17.6,0,0,0-1.29-6.6,19.44,19.44,0,0,0-13.38-11.38,30.29,30.29,0,0,0-8.53-1h-.48a17.55,17.55,0,0,0-2.7.29l-.91-.13c-.62-.09-1.31-.19-2.08-.28a28,28,0,0,1-7.57-2.16l-.4-.19-.41-.16a24.91,24.91,0,0,1-10-6.73l-.16-.18-.16-.17c-1.86-2-3.36-4.63-5-8.75a81.62,81.62,0,0,1-3.61-13.09l-.09-.49-.12-.47a36.61,36.61,0,0,1-.68-5.81c-.06-.87-.13-1.77-.21-2.72,0-6-.19-11.76-.35-17.36-.08-2.93-.15-5.88-.22-8.88,0-5.8-.11-11.77-.22-17.54s-.21-11.71-.21-17.43c0-9.41,0-20-.45-30.68,0-2.52-.06-5.05-.07-7.67,5.36.09,10.6.14,15.9.14,6.09,0,13,0,20.12-.45,4.94,0,10,0,15.17-.51,2.33,0,4.57-.16,6.56-.28,1.69-.11,3.28-.2,4.68-.22.46,0,.94,0,1.42-.08,5.66-.54,10-1,14.4-1.61a247,247,0,0,0,29.53-5.45c23.89-6,45.4-15.19,63.93-27.34,14.73-9.64,26.7-19.9,36.57-31.38a158.08,158.08,0,0,0,36.41-68.46c1.58-6,2.62-11.79,3.55-17.19l.07-.36,0-.36c.08-.64.16-1.28.25-1.93.35-2.72.74-5.77.91-9a46.77,46.77,0,0,0,.34-6.24V316.73c0-1,0-2.1-.05-3.3a19,19,0,0,0-.28-2.45,18.45,18.45,0,0,1-.1-2.1,17.06,17.06,0,0,0-.3-3.19c-.11-.57-.2-1.48-.3-2.46-.13-1.33-.28-2.83-.57-4.46a186.77,186.77,0,0,0-3.71-18.43,134.76,134.76,0,0,0-17.63-39.21,137.44,137.44,0,0,0-23.59-27.86l0,0,0,0A173.21,173.21,0,0,0,902.13,175a189.25,189.25,0,0,0-22.37-5c-4.29-.72-8.64-1.19-12.85-1.65l-1.45-.15h-.13c-6.91-.69-14.39-1-22.87-1-6.4-.12-12.87-.18-19.13-.25-5.93-.06-12.07-.12-18.07-.23H805c-9.16,0-17.83,0-26.62-.07-6.91-.11-13.68-.13-20.22-.16H747.38a16.66,16.66,0,0,0-2-.13ZM768,205.49h2.92c1.43.1,2.81.16,4,.21s2.54.11,3.57.2l.19,0h.2a100.16,100.16,0,0,1,28,5.57A84.31,84.31,0,0,1,847.18,242a99.27,99.27,0,0,1,12.66,23.92,194.24,194.24,0,0,1,6.33,20.28c.22,1.12.44,2.26.66,3.4.71,3.66,1.44,7.43,2,11,.4,2.85.75,5.58,1.12,8.47l.28,2.12c.59,6.41.87,11.74.87,16.75,0,4.46-.16,8.62-.47,12.7-.22,1.95-.47,4-.71,6-.2,1.64-.4,3.28-.58,4.88-1.32,6.92-2.74,13-4.36,18.67v.07a167,167,0,0,1-19.73,43.63c-3.79,5.7-7.25,10.79-10.92,15.33-13.2,16.09-29.54,26.94-49.92,33.17-6.12,1.58-11,2.63-15.49,3.37V336.25a16.18,16.18,0,0,0-.9-5.37q0-19.67.06-39.36l0-10.64c0-9,0-18.33,0-27.58,0-6.64,0-13.28-.11-20.32,0-9.28,0-18.58-.06-27.49Z"/></svg>