<svg id="Layer_1" data-name="Layer 1" xmlns="http://www.w3.org/2000/svg" xmlns:xlink="http://www.w3.org/1999/xlink" viewBox="0 0 27.07 20.05"><defs><style>.cls-1{fill:url(#linear-gradient);}.cls-2{opacity:0.45;}.cls-3,.cls-4{fill:#56121b;}.cls-3,.cls-5{fill-rule:evenodd;}.cls-5{fill:#fff;}</style><linearGradient id="linear-gradient" x1="0.27" y1="10.03" x2="26.81" y2="10.03" gradientUnits="userSpaceOnUse"><stop offset="0.18" stop-color="#56121b"/><stop offset="0.37" stop-color="#9d292a"/><stop offset="0.51" stop-color="#be292b"/><stop offset="0.64" stop-color="#9d292a"/><stop offset="0.83" stop-color="#56121b"/></linearGradient></defs><ellipse class="cls-1" cx="13.54" cy="10.03" rx="13.27" ry="9.76"/><path d="M13.54.54c7.18,0,13,4.25,13,9.49s-5.82,9.48-13,9.48S.54,15.27.54,10,6.36.54,13.54.54m0-.54C6.07,0,0,4.5,0,10s6.07,10,13.54,10,13.53-4.5,13.53-10S21,0,13.54,0Z"/><g class="cls-2"><path class="cls-3" d="M8.51,16.44a7.57,7.57,0,0,1-1-.06,6.74,6.74,0,0,1-2.5-.7A4.16,4.16,0,0,1,3.23,14,2.76,2.76,0,0,1,3.46,11a2.07,2.07,0,0,1,1.35-.74l.5,0a2.73,2.73,0,0,1,.87.13l0,0A4.05,4.05,0,0,1,4.78,8.79a3.36,3.36,0,0,1-.3-1.73A2.76,2.76,0,0,1,5,5.56,3,3,0,0,1,6.51,4.48,6.5,6.5,0,0,1,8.7,4.11h.23a8.07,8.07,0,0,1,1.7.26l.12,0c.2,0,.39.09.59.11a.7.7,0,0,1,.45-.23.41.41,0,0,1,.39.36l0,.15.06.59.19,2,0,.36,0,.13a.4.4,0,0,1-.34.3h-.26l-.12-.32L11.53,7A3.2,3.2,0,0,0,11,5.73,2,2,0,0,0,9.83,5,3.73,3.73,0,0,0,9,4.9,2.48,2.48,0,0,0,8.26,5a1.4,1.4,0,0,0-1,1.47,1.37,1.37,0,0,0,.37.83,3.88,3.88,0,0,0,1.14.8c.4.21.8.4,1.2.59l1.46.73A4.43,4.43,0,0,1,13.21,11a3.28,3.28,0,0,1-1.11,4.55,5.46,5.46,0,0,1-2,.76A8.91,8.91,0,0,1,8.51,16.44ZM7,13.33a.91.91,0,0,0-.8.67,1,1,0,0,0,.41,1.2,2.23,2.23,0,0,0,1.11.41l.51,0a2.77,2.77,0,0,0,2-.8,1.69,1.69,0,0,0,.48-.84,1.26,1.26,0,0,0-.26-1.08,2.85,2.85,0,0,0-.86-.69c-.39-.24-.8-.45-1.21-.66l-1.29-.65a2.17,2.17,0,0,1,.71,1.26,1.92,1.92,0,0,1-.06,1l-.06.19-.27.07a.35.35,0,0,1-.14,0A1,1,0,0,0,7,13.33Z"/><path class="cls-4" d="M8.7,4.4h.22a9.15,9.15,0,0,1,1.65.26l.73.15h.08a.32.32,0,0,0,.3-.17.12.12,0,0,1,.11-.06h0a.09.09,0,0,1,.09.1l.09.73.18,2,0,.31a.25.25,0,0,1,0,.08.1.1,0,0,1-.1.08h0c-.05,0,0-.05,0-.08-.08-.29-.15-.58-.22-.88a3.69,3.69,0,0,0-.61-1.39,2.37,2.37,0,0,0-1.3-.82A4.06,4.06,0,0,0,9,4.61a2.6,2.6,0,0,0-.82.13A1.68,1.68,0,0,0,7,6.5a1.65,1.65,0,0,0,.45,1,4.32,4.32,0,0,0,1.22.87c.88.45,1.78.85,2.66,1.31A4.11,4.11,0,0,1,13,11.14a2.88,2.88,0,0,1,.45,1.68,3,3,0,0,1-1.47,2.48A5.11,5.11,0,0,1,10,16a8.25,8.25,0,0,1-1.49.13,9.08,9.08,0,0,1-.91,0,6.67,6.67,0,0,1-2.4-.67,3.88,3.88,0,0,1-1.72-1.61,2.47,2.47,0,0,1,.2-2.63,1.78,1.78,0,0,1,1.17-.63,2.53,2.53,0,0,1,1.48.18,2.07,2.07,0,0,1,1.22,1.5,1.63,1.63,0,0,1,0,.82s0,.06-.06.06h0A1.36,1.36,0,0,0,7,13.05,1.19,1.19,0,0,0,6,13.9a1.29,1.29,0,0,0,.51,1.53,2.44,2.44,0,0,0,1.24.46,3.44,3.44,0,0,0,.54,0,3,3,0,0,0,2.22-.88,2,2,0,0,0,.56-1,1.58,1.58,0,0,0-.31-1.31A3.31,3.31,0,0,0,9.77,12c-.57-.35-1.18-.63-1.78-.94a13.77,13.77,0,0,1-1.68-.93A3.81,3.81,0,0,1,5,8.66a3.07,3.07,0,0,1-.28-1.58,2.53,2.53,0,0,1,.47-1.35,2.68,2.68,0,0,1,1.38-1A6.24,6.24,0,0,1,8.7,4.4m0-.57a6.78,6.78,0,0,0-2.28.38A3.34,3.34,0,0,0,4.76,5.39,3.17,3.17,0,0,0,4.19,7a3.58,3.58,0,0,0,.34,1.87,4.26,4.26,0,0,0,.71,1,3.89,3.89,0,0,0-.47,0,2.32,2.32,0,0,0-1.53.84A3,3,0,0,0,3,14.09a4.52,4.52,0,0,0,2,1.85,7.23,7.23,0,0,0,2.6.73c.33,0,.65,0,1,0a8.62,8.62,0,0,0,1.59-.14,5.59,5.59,0,0,0,2.15-.8A3.51,3.51,0,0,0,14,12.85a3.37,3.37,0,0,0-.53-2,4.73,4.73,0,0,0-1.89-1.68L10.1,8.44,8.9,7.86a3.83,3.83,0,0,1-1.06-.74,1.14,1.14,0,0,1-.3-.67,1.11,1.11,0,0,1,.8-1.17A2.32,2.32,0,0,1,9,5.19a3.13,3.13,0,0,1,.77.1,1.7,1.7,0,0,1,1,.62,2.92,2.92,0,0,1,.5,1.17c0,.15.08.29.11.43s.07.28.1.42a.61.61,0,0,0,.61.55h.08a.67.67,0,0,0,.58-.5.59.59,0,0,0,0-.27l0-.32,0-.4-.15-1.62c0-.21-.05-.42-.07-.63l0-.12a.66.66,0,0,0-.61-.6h-.06a.69.69,0,0,0-.51.22c-.16,0-.31-.06-.46-.09l-.12,0a9.41,9.41,0,0,0-1.76-.27ZM7.44,13.69a.61.61,0,0,0,.6-.45,2.14,2.14,0,0,0,.07-1.1A3.31,3.31,0,0,0,8,11.69l.29.15c.42.21.82.41,1.19.64a2.85,2.85,0,0,1,.78.62,1,1,0,0,1,.21.85,1.39,1.39,0,0,1-.41.7,2.4,2.4,0,0,1-1.81.71l-.47,0a1.86,1.86,0,0,1-1-.36.72.72,0,0,1-.32-.87s.18-.48.53-.48l.19,0,.09,0Z"/></g><path class="cls-5" d="M8.88,16.33c-.31,0-.62,0-.93,0a6.85,6.85,0,0,1-2.46-.69,4.06,4.06,0,0,1-1.8-1.69,2.65,2.65,0,0,1,.23-2.83,1.93,1.93,0,0,1,1.28-.7,4,4,0,0,1,.49,0,2.49,2.49,0,0,1,1.09.25A2.22,2.22,0,0,1,8.1,12.21a1.8,1.8,0,0,1,0,.9l0,.13-.2.06a.2.2,0,0,1-.1,0,1.25,1.25,0,0,0-.32,0,1,1,0,0,0-.9.73,1.13,1.13,0,0,0,.45,1.32,2.37,2.37,0,0,0,1.16.43l.52,0a2.84,2.84,0,0,0,2.08-.83,1.69,1.69,0,0,0,.51-.9,1.35,1.35,0,0,0-.28-1.16,2.87,2.87,0,0,0-.88-.71c-.39-.24-.81-.45-1.22-.66L7.91,11a10.35,10.35,0,0,1-1.33-.76A3.92,3.92,0,0,1,5.25,8.74,3.36,3.36,0,0,1,5,7.06a2.86,2.86,0,0,1,.5-1.45,2.91,2.91,0,0,1,1.47-1,6.51,6.51,0,0,1,2.15-.36H9.3A8.68,8.68,0,0,1,11,4.48l.12,0,.6.12h0c.1,0,.13,0,.16-.07a.32.32,0,0,1,.27-.16.29.29,0,0,1,.29.26s.06.54.08.74l.19,2,0,.34,0,.12a.29.29,0,0,1-.25.21h-.17l-.09-.22L12,7a3.25,3.25,0,0,0-.57-1.32,2.17,2.17,0,0,0-1.2-.75,3.49,3.49,0,0,0-.87-.12,2.37,2.37,0,0,0-.76.12A1.49,1.49,0,0,0,7.53,6.48a1.43,1.43,0,0,0,.4.89A3.86,3.86,0,0,0,9.1,8.2l1.2.59c.49.24,1,.47,1.45.72A4.25,4.25,0,0,1,13.49,11,3.07,3.07,0,0,1,14,12.82a3.17,3.17,0,0,1-1.55,2.63,5.49,5.49,0,0,1-2,.75A9.87,9.87,0,0,1,8.88,16.33Z"/><path d="M9.07,4.39h.22a7.67,7.67,0,0,1,1.65.26c.25,0,.49.11.74.14h.08a.31.31,0,0,0,.29-.17.13.13,0,0,1,.11-.07h0c.06,0,.08,0,.09.11,0,.24.06.48.08.73.06.67.12,1.34.19,2,0,.1,0,.2,0,.3v.09a.14.14,0,0,1-.1.08h0s0-.05,0-.08c-.08-.29-.14-.59-.22-.88a3.59,3.59,0,0,0-.61-1.4,2.36,2.36,0,0,0-1.3-.81,4,4,0,0,0-.91-.12,3,3,0,0,0-.82.12A1.7,1.7,0,0,0,7.34,6.5a1.8,1.8,0,0,0,.45,1A4.2,4.2,0,0,0,9,8.36c.88.45,1.78.86,2.65,1.32a4,4,0,0,1,1.66,1.46,2.86,2.86,0,0,1,.45,1.68,3,3,0,0,1-1.46,2.48,5.24,5.24,0,0,1-1.94.72,9.5,9.5,0,0,1-1.5.13c-.3,0-.61,0-.91,0a6.67,6.67,0,0,1-2.4-.67,4,4,0,0,1-1.72-1.62,2.45,2.45,0,0,1,.21-2.62,1.78,1.78,0,0,1,1.16-.64,3.71,3.71,0,0,1,.47,0,2.25,2.25,0,0,1,1,.22,2,2,0,0,1,1.22,1.5,1.59,1.59,0,0,1,0,.81s0,.07-.07.07h0A1.1,1.1,0,0,0,7.39,13a1.21,1.21,0,0,0-1.07.86,1.3,1.3,0,0,0,.51,1.52,2.55,2.55,0,0,0,1.25.47,4.9,4.9,0,0,0,.54,0,3,3,0,0,0,2.21-.88,1.93,1.93,0,0,0,.56-1,1.55,1.55,0,0,0-.31-1.31,3.15,3.15,0,0,0-.94-.76c-.57-.35-1.18-.63-1.77-.94a14,14,0,0,1-1.69-.94A3.78,3.78,0,0,1,5.41,8.66a3.07,3.07,0,0,1-.28-1.58A2.68,2.68,0,0,1,5.6,5.72,2.84,2.84,0,0,1,7,4.74a6.5,6.5,0,0,1,2.09-.35m0-.36a6.62,6.62,0,0,0-2.21.37A3.07,3.07,0,0,0,5.3,5.51a3,3,0,0,0-.53,1.54,3.5,3.5,0,0,0,.31,1.77,4,4,0,0,0,1.1,1.37,3.89,3.89,0,0,0-.49,0,3.12,3.12,0,0,0-.52,0,2.12,2.12,0,0,0-1.4.77,2.85,2.85,0,0,0-.24,3A4.27,4.27,0,0,0,5.4,15.75a6.84,6.84,0,0,0,2.53.71,7.46,7.46,0,0,0,1,.05,9.12,9.12,0,0,0,1.56-.13,5.62,5.62,0,0,0,2.08-.77,3.36,3.36,0,0,0,1.63-2.78,3.29,3.29,0,0,0-.5-1.88,4.46,4.46,0,0,0-1.81-1.6c-.48-.25-1-.49-1.46-.72L9.18,8a3.7,3.7,0,0,1-1.11-.79,1.25,1.25,0,0,1-.36-.78,1.32,1.32,0,0,1,.94-1.39A2.39,2.39,0,0,1,9.36,5a3,3,0,0,1,.82.11,1.92,1.92,0,0,1,1.1.68A3.24,3.24,0,0,1,11.83,7c0,.14.07.29.1.43s.07.3.11.45a.39.39,0,0,0,.41.36h.05a.46.46,0,0,0,.41-.35.65.65,0,0,0,0-.2l0-.32,0-.4q-.06-.81-.15-1.62c0-.2,0-.41-.07-.62V4.63a.47.47,0,0,0-.42-.42h0a.5.5,0,0,0-.47.25l-.59-.13L11,4.3A9,9,0,0,0,9.3,4ZM7.81,13.48a.42.42,0,0,0,.41-.31,1.86,1.86,0,0,0,.06-1,2.35,2.35,0,0,0-.42-1l.34.18.55.28c.4.2.82.41,1.2.64a3.07,3.07,0,0,1,.84.67A1.19,1.19,0,0,1,11,14a1.65,1.65,0,0,1-.46.8,2.59,2.59,0,0,1-2,.77l-.5,0a2.11,2.11,0,0,1-1.07-.4A.93.93,0,0,1,6.67,14a.84.84,0,0,1,.72-.61.85.85,0,0,1,.26.05l.06,0Z"/><g class="cls-2"><path class="cls-3" d="M19.75,16.46l-.1,0H14.38l-.1,0-.12,0,0,0,0-.06a.43.43,0,0,1,0-.45l.08-.12.24-.06.32,0,.15,0a.58.58,0,0,0,.29-.2,1.28,1.28,0,0,0,.11-.2,2,2,0,0,0,.09-.39l0-.22a2.44,2.44,0,0,0,0-.28c0-.25,0-.48,0-.7V6.48c0-.16,0-.31,0-.47l.26-.21-.27.09a3,3,0,0,0-.06-.35c0-.08,0-.13,0-.19A.6.6,0,0,0,14.93,5a1,1,0,0,0-.3-.08l-.28,0h-.06l-.12,0a.29.29,0,0,1-.13-.1L14,4.65l0-.17V4.41h0s0,0,0-.07L14,4.13l.28,0H18.6l2,0a4.87,4.87,0,0,1,.54,0l.34,0a4.52,4.52,0,0,1,.53.11,4,4,0,0,1,1.63.91,2.66,2.66,0,0,1,.56.66,2.77,2.77,0,0,1,.41.91,3.12,3.12,0,0,1,.09.44l0,.26V8a1.21,1.21,0,0,1,0,.2,1.76,1.76,0,0,1,0,.19c0,.2-.06.34-.09.47a3.69,3.69,0,0,1-.86,1.62,4.26,4.26,0,0,1-.86.74,5.08,5.08,0,0,1-1.52.64,5.4,5.4,0,0,1-.7.13l-.35,0h-.31a1.78,1.78,0,0,1-.34,0h-1v.28c0,.23,0,.48,0,.73l0,1.49a1,1,0,0,0,0,.21,1.79,1.79,0,0,0,.09.35.64.64,0,0,0,.14.23.63.63,0,0,0,.28.19l.22.07.11.3v-.29h.1l.14,0,.13,0,.13.19a.32.32,0,0,1,0,.13v0l0,.13a.36.36,0,0,1-.2.24l-.06,0h-.17Zm-1-8.59v3.44h.05c.15,0,.29-.06.43-.09a2.45,2.45,0,0,0,1.24-.83c.09-.11.18-.24.27-.37a4.2,4.2,0,0,0,.48-1.07c0-.16.08-.32.11-.47l0-.26c0-.1,0-.21,0-.31s0-.28,0-.42l0-.26-.05-.28a3.8,3.8,0,0,0-.17-.56,2.62,2.62,0,0,0-.31-.6,2.18,2.18,0,0,0-1-.76,2.48,2.48,0,0,0-.7-.14h-.2l0-.29v.29h-.12Z"/><path class="cls-4" d="M18.31,4.37h2.34l.51,0,.32,0a4,4,0,0,1,.5.11,3.67,3.67,0,0,1,1.52.84,3.07,3.07,0,0,1,.89,1.44c0,.13.06.27.08.41s0,.11,0,.17h0a.49.49,0,0,0,0,.12h0v.62l0,.25c0,.14,0,.26-.08.39a3.42,3.42,0,0,1-.8,1.5,3.79,3.79,0,0,1-.8.69,4.9,4.9,0,0,1-1.43.61c-.22.05-.44.09-.67.12l-.33,0H18.55s-.05,0-.06,0v.5c0,.24,0,.49,0,.73s0,.57,0,.84,0,.43,0,.65h0a1.41,1.41,0,0,0,0,.28,3.06,3.06,0,0,0,.1.38,1.27,1.27,0,0,0,.2.33.92.92,0,0,0,.38.26,1.23,1.23,0,0,0,.29.08l.15,0h.16a.07.07,0,0,1,.07.06s0,0,0,0a.28.28,0,0,1,0,.09.15.15,0,0,1-.05.06H14.42l-.09,0h0l0,0a.2.2,0,0,1,0-.13l.07,0,.13,0h0l.24,0a1,1,0,0,0,.22-.05.94.94,0,0,0,.4-.28,1.25,1.25,0,0,0,.15-.28,1.8,1.8,0,0,0,.1-.46c0-.07,0-.14,0-.21a1.77,1.77,0,0,0,0-.33c0-.23,0-.46,0-.69V8.4c0-.19,0-.38,0-.56V6.48a4,4,0,0,0,0-.49h0c0-.07,0-.13,0-.19h0a1.55,1.55,0,0,0-.06-.31,1.43,1.43,0,0,0,0-.22.87.87,0,0,0-.47-.54,1.42,1.42,0,0,0-.4-.12l-.3,0h-.07l0,0s0,0,0,0v0a.09.09,0,0,1,0,0,.06.06,0,0,1,.06,0h4m.34,7.23h0l.23,0,.45-.09a2.8,2.8,0,0,0,1.39-.92c.1-.13.19-.27.28-.41A4,4,0,0,0,21.54,9a3.89,3.89,0,0,0,.12-.49l0-.28c0-.12,0-.23,0-.34a3.4,3.4,0,0,0,0-.45l0-.27c0-.12,0-.25-.07-.37s-.11-.36-.17-.53a2.61,2.61,0,0,0-.35-.66,2.34,2.34,0,0,0-1.14-.87,2.63,2.63,0,0,0-.78-.15l-.2,0h-.35a.11.11,0,0,0-.09.09h0a.53.53,0,0,0,0,.12V8.06s0,0,0,0v3.41a.43.43,0,0,1,0,0,.13.13,0,0,0,.07.06h.06m-.34-7.8h-4a.63.63,0,0,0-.61.46l0,.08V4.4a.38.38,0,0,0,0,.15v.18l.13.18a.71.71,0,0,0,.54.23l.23,0a.79.79,0,0,1,.22.06.35.35,0,0,1,.18.21s0,.08,0,.12,0,.2.05.29v.06c0,.08,0,.12,0,.16s0,.26,0,.41c0,.45,0,.91,0,1.36v5.75c0,.22,0,.44,0,.67a2.27,2.27,0,0,1,0,.28s0,.07,0,.12v.06a1.07,1.07,0,0,1-.08.36.34.34,0,0,1-.08.14.23.23,0,0,1-.12.08l-.13,0h-.1l-.13,0h0a.72.72,0,0,0-.48.21l0,.05,0,0a.73.73,0,0,0,0,.79l.06.09.11.07.07,0,.1,0,.09,0,.07,0H20l.12-.06a.68.68,0,0,0,.36-.45.78.78,0,0,0,0-.22V15.9l0-.12a.68.68,0,0,0-.46-.4.87.87,0,0,0-.25,0h-.14l-.11,0a.5.5,0,0,1-.19-.12.63.63,0,0,1-.1-.17c0-.08-.05-.17-.07-.27a.42.42,0,0,1,0-.14v-.08c0-.1,0-.25,0-.39v-.64c0-.14,0-.27,0-.41s0-.48,0-.72h1.35l.36,0a7.17,7.17,0,0,0,.73-.14,5,5,0,0,0,1.6-.69,4.3,4.3,0,0,0,.93-.79A4.08,4.08,0,0,0,25,9c0-.14.06-.28.08-.43h0V8.46l0-.23c0-.05,0-.11,0-.16V7.32a.57.57,0,0,0,0-.16,3.73,3.73,0,0,0-.09-.46,3.4,3.4,0,0,0-.45-1,3.49,3.49,0,0,0-.6-.7,4.31,4.31,0,0,0-1.75-1,4.71,4.71,0,0,0-.56-.13l-.32,0-.61,0H18.31Zm.75,3.91V6.1c0-.16,0-.33,0-.49V5.16h0a1.91,1.91,0,0,1,.63.12A1.81,1.81,0,0,1,20.6,6a2.2,2.2,0,0,1,.27.53A3.68,3.68,0,0,1,21,7V7a2.56,2.56,0,0,1,0,.27l0,.19v.06c0,.11,0,.23,0,.37s0,.19,0,.29v.13l0,.13a3,3,0,0,1-.1.41,3.68,3.68,0,0,1-.45,1c-.07.11-.16.23-.25.35a2.24,2.24,0,0,1-1.11.73l-.1,0V7.72Z"/></g><path class="cls-5" d="M19.37,16.35H14l-.11,0-.13-.09a.32.32,0,0,1,0-.34l0-.05.09-.05.19,0,.26,0,.18,0a.81.81,0,0,0,.33-.23,1.24,1.24,0,0,0,.12-.23,1.67,1.67,0,0,0,.09-.42l0-.21a2.53,2.53,0,0,0,0-.28c0-.26,0-.49,0-.72V8.4s0-1.47,0-1.92a3.85,3.85,0,0,0,0-.48l0-.21c0-.08,0-.18-.05-.27a1.73,1.73,0,0,0,0-.2.7.7,0,0,0-.38-.44,1,1,0,0,0-.34-.1l-.28,0h0l-.1,0a.17.17,0,0,1-.09-.07l0,0,0-.1a.58.58,0,0,1,0-.15l0-.13.2,0h6.33a4.61,4.61,0,0,1,.53,0l.34,0a4.87,4.87,0,0,1,.52.12,4,4,0,0,1,1.59.88,2.92,2.92,0,0,1,.54.64,3,3,0,0,1,.48,1.31l0,.18-.17.15.17,0V8a1,1,0,0,1,0,.19,1.91,1.91,0,0,1,0,.2,3.23,3.23,0,0,1-.09.45,3.58,3.58,0,0,1-.84,1.57,3.8,3.8,0,0,1-.84.73,4.94,4.94,0,0,1-1.48.63,5.58,5.58,0,0,1-.69.13L20,12H18.37l-.12-.19V12a.09.09,0,0,0,0-.06v.44c0,.24,0,.49,0,.73l0,1.49a1.09,1.09,0,0,0,0,.24,2.12,2.12,0,0,0,.1.36,1,1,0,0,0,.15.27.89.89,0,0,0,.32.21.92.92,0,0,0,.25.08h.23l.11,0,.08,0,.11.14v.24a.28.28,0,0,1-.14.17l0,0h-.17Zm-1-4.83h0Zm0-3.58v3.47h0l.18,0,.43-.1a2.55,2.55,0,0,0,1.29-.85,4.56,4.56,0,0,0,.27-.39,4.23,4.23,0,0,0,.61-1.58l0-.27c0-.1,0-.21,0-.32a3,3,0,0,0,0-.42l0-.27L21,6.84a4.83,4.83,0,0,0-.16-.5,2.3,2.3,0,0,0-.33-.62,2.2,2.2,0,0,0-1.05-.8,2.7,2.7,0,0,0-.73-.15H18.3V7.94Z"/><path d="M17.94,4.37h2.34l.52,0,.32,0,.5.11a4,4,0,0,1,1.52.84,3.19,3.19,0,0,1,.5.6,2.9,2.9,0,0,1,.38.84,3.28,3.28,0,0,1,.08.41l0,.18h0a.45.45,0,0,0,0,.11h0v.5a.53.53,0,0,1,0,.12,2.13,2.13,0,0,1,0,.25,2.33,2.33,0,0,1-.08.38,3.4,3.4,0,0,1-.79,1.5,3.57,3.57,0,0,1-.81.69,4.42,4.42,0,0,1-1.43.61c-.22.06-.44.09-.67.13l-.33,0h0l-.29,0H18.25l-.07,0a.05.05,0,0,0-.05,0v.5c0,.24,0,.48,0,.72s0,.57,0,.85,0,.42,0,.64h0a2.48,2.48,0,0,0,0,.27,1.66,1.66,0,0,0,.11.38.92.92,0,0,0,.19.33,1,1,0,0,0,.38.26,1,1,0,0,0,.29.09h.31a.16.16,0,0,1,.08.06v0a.34.34,0,0,1,0,.1s0,0-.05.05H14.05l-.09,0h0a.29.29,0,0,1,0-.13l0,0h0l.13,0h0l.24,0a.9.9,0,0,0,.22-.06.8.8,0,0,0,.4-.28,1.17,1.17,0,0,0,.15-.27,1.46,1.46,0,0,0,.1-.46,1.52,1.52,0,0,0,0-.21c0-.11,0-.22,0-.34s0-.46,0-.69V8.4c0-.19,0-.38,0-.56V6.48c0-.17,0-.33,0-.49h0a1.25,1.25,0,0,0,0-.19h0c0-.11,0-.21,0-.32a1.6,1.6,0,0,0-.05-.21.89.89,0,0,0-.47-.55,1.43,1.43,0,0,0-.39-.11l-.3,0h-.07l0,0,0,0v0a.07.07,0,0,1,0,0,.06.06,0,0,1,.06,0h4m.35,7.23h0l.23,0,.44-.1a2.8,2.8,0,0,0,1.39-.92c.1-.12.19-.26.29-.4A4.77,4.77,0,0,0,21.18,9c0-.16.08-.33.11-.49s0-.19,0-.29,0-.23,0-.34,0-.29,0-.44a2.51,2.51,0,0,1,0-.27c0-.12-.05-.25-.07-.37A5.6,5.6,0,0,0,21,6.27a2.63,2.63,0,0,0-.35-.66,2.38,2.38,0,0,0-1.14-.86,2.93,2.93,0,0,0-.77-.16h-.55a.12.12,0,0,0-.1.09v0a.49.49,0,0,0,0,.12v.79c0,.16,0,.32,0,.49s0,.61,0,.92V8.08h0v3.44a.08.08,0,0,0,.07.07h.06M17.94,4H14a.43.43,0,0,0-.41.31l0,.05v0a.24.24,0,0,0,0,.12v.11l.09.13a.52.52,0,0,0,.39.17l.25,0a1,1,0,0,1,.29.08.53.53,0,0,1,.27.33.4.4,0,0,1,0,.15,2.26,2.26,0,0,1,.06.3.59.59,0,0,1,0,.11.41.41,0,0,1,0,.11c0,.13,0,.28,0,.43,0,.46,0,.91,0,1.37v6.42c0,.13,0,.22,0,.31a.41.41,0,0,1,0,.1.22.22,0,0,1,0,.08,1.46,1.46,0,0,1-.08.4.93.93,0,0,1-.11.19.53.53,0,0,1-.22.15l-.16,0h-.11l-.12,0-.1,0h-.08l-.09,0a.56.56,0,0,0-.15.1l0,0,0,0a.57.57,0,0,0,0,.55l0,.06.07.05.05,0h.06l.09,0h5.62l.07,0a.44.44,0,0,0,.25-.31.88.88,0,0,0,0-.17v-.07l0-.09a.51.51,0,0,0-.34-.28H19.2L19,15.5a.62.62,0,0,1-.39-.39,1.81,1.81,0,0,1-.09-.31,1.28,1.28,0,0,1,0-.17V13.51c0-.14,0-.28,0-.42s0-.49,0-.74v-.18H20l.38,0a6.27,6.27,0,0,0,.71-.13,5.12,5.12,0,0,0,1.54-.66,4,4,0,0,0,.89-.76,3.81,3.81,0,0,0,.87-1.65c0-.13.06-.27.08-.41h0V8.43l0-.24V7.48a.06.06,0,0,1,0,0V7.36a.13.13,0,0,1,0-.06.43.43,0,0,0,0-.11c0-.15-.05-.3-.08-.44a3.27,3.27,0,0,0-.43-1,3.45,3.45,0,0,0-.57-.67,4.11,4.11,0,0,0-1.66-.92l-.54-.12-.31,0-.59,0H17.94Zm.55,1h.25a2.42,2.42,0,0,1,.69.13,2.08,2.08,0,0,1,1,.74,2.57,2.57,0,0,1,.3.57,4.13,4.13,0,0,1,.15.5l0,.07c0,.09,0,.18.05.27l0,.2V7.5c0,.12,0,.25,0,.39s0,.21,0,.31l0,.14v.13c0,.13-.06.29-.11.44A4.1,4.1,0,0,1,20.35,10l-.26.36a2.44,2.44,0,0,1-1.21.8l-.37.08V7.86h0V5Z"/></svg>