<svg xmlns="http://www.w3.org/2000/svg" viewBox="0 0 475.8 475.8"><defs><style>.cls-1,.cls-2{fill:#fff;}.cls-2{fill-rule:evenodd;}</style></defs><g id="Capa_2" data-name="Capa 2"><g id="Capa_1-2" data-name="Capa 1"><path class="cls-1" d="M237.9,14.17c123.56,0,223.72,100.17,223.72,223.73S361.46,461.62,237.9,461.62,14.17,361.46,14.17,237.9,114.34,14.17,237.9,14.17M237.9,0a238,238,0,0,0-92.61,457.1A238,238,0,0,0,330.5,18.7,236.39,236.39,0,0,0,237.9,0Z"/><path class="cls-2" d="M137.11,344.76c15.59-.05,29.15-4.94,40.15-16,5-5,8.71-10.86,10.17-17.85,1.83-8.75-.32-16.7-5.7-23.74-4.54-5.93-10.68-10-16.95-13.83-10.4-6.32-21.46-11.39-32.23-17-10.33-5.39-21-10.25-30.51-17-9.76-6.89-17.79-15.49-23-26.38A55.44,55.44,0,0,1,74,184.29c.68-8.92,3.11-17.27,8.43-24.59,6.34-8.72,15-14.24,25-17.73a115.2,115.2,0,0,1,41.91-6.29c10.18.32,20.07,2.49,30,4.69,4.41,1,8.8,2.06,13.29,2.68,2.92.4,5.33-.31,6.84-3a2.18,2.18,0,0,1,2.23-1.16c1,.08,1.5.93,1.61,1.87.52,4.43,1.07,8.86,1.5,13.3,1.17,12.18,2.28,24.38,3.4,36.57.17,1.84.31,3.68.44,5.53a4.56,4.56,0,0,1-.11,1.52,2,2,0,0,1-1.78,1.52c-1.13.14-.93-1-1.07-1.48-1.35-5.29-2.56-10.63-3.91-15.93-2.31-9-5.16-17.85-11.12-25.3a42,42,0,0,0-23.51-14.75c-10.43-2.56-20.89-3.2-31.32,0a30.7,30.7,0,0,0-21.77,32,30.36,30.36,0,0,0,8.17,18.14c6.23,6.87,14,11.54,22.18,15.7,15.93,8.13,32.22,15.49,48.07,23.77,12.26,6.41,22.85,14.62,30.19,26.57a52,52,0,0,1,8.12,30.35c-1,19.54-10.09,34.49-26.55,45-10.78,6.89-22.65,10.87-35.18,13a156.23,156.23,0,0,1-43.66,1.46c-15.14-1.66-29.86-5.06-43.49-12.17-13.1-6.83-24.06-16-31.15-29.26-8.07-15-6.5-35.06,3.74-47.58,5.46-6.69,12.73-10.28,21.15-11.5,9.18-1.33,18.28-.72,26.73,3.39,11.51,5.6,19.73,14.15,22.15,27.21a28.64,28.64,0,0,1-.82,14.74c-.38,1.1-.83,1.39-2,1-13.6-4.63-22.87,5-26.24,14.34-3.72,10.33-.25,20.34,9.24,27.6,6.69,5.11,14.39,7.46,22.6,8.47A94.24,94.24,0,0,0,137.11,344.76Z"/><path class="cls-2" d="M427.63,195v7.21a12.11,12.11,0,0,1-.13,2.15c-.06,1.56-.29,3.09-.47,4.59-.41,2.38-.83,4.67-1.44,7a61.93,61.93,0,0,1-14.38,27,67.73,67.73,0,0,1-14.56,12.48,83.75,83.75,0,0,1-25.8,11,99.78,99.78,0,0,1-12.07,2.22c-2.08.28-4,.48-6.06.68-1.66,0-3.42.22-5.18.22-2.08.21-4.3.21-6.47.22-2.91.19-5.76.19-8.53.19-3.12,0-6,0-9-.1-.81,0-1.42,0-2.19,0a3.24,3.24,0,0,0-1.31.28,1.11,1.11,0,0,0-.95.83.83.83,0,0,0-.11.42,16.49,16.49,0,0,0,0,1.86c0,2.3,0,4.55,0,6.74.17,4.39.18,8.78.19,13.16,0,5.07.19,10.28.19,15.28.08,3.94.23,7.69.25,11.65a32.62,32.62,0,0,0,.58,5,42.77,42.77,0,0,0,1.89,6.86,18.6,18.6,0,0,0,3.52,5.95,17.42,17.42,0,0,0,6.88,4.72,22.91,22.91,0,0,0,8.1,1.79,1.94,1.94,0,0,1,.69-.17,6.77,6.77,0,0,1,2,.2,1.81,1.81,0,0,1,1.44,1.24,6,6,0,0,1-.18,1.88,1.58,1.58,0,0,1-.84,1,.72.72,0,0,0-.4.11h-1.68a2.26,2.26,0,0,0-.83-.13,5.79,5.79,0,0,0-1.89-.18H244.94a4.44,4.44,0,0,1-1.44-.63c-.23-.42-.64-.62-.91-1-.15,0-.15-.41.08-.41.19-.42.59-.68.83-1.05a3.13,3.13,0,0,1,1-.62,11.26,11.26,0,0,0,2.73-.41c1.43-.22,2.91-.39,4.34-.61a16.45,16.45,0,0,0,4-1,15.55,15.55,0,0,0,7.26-5.06,23.17,23.17,0,0,0,2.73-5,34.27,34.27,0,0,0,1.85-8.36c.23-1.25.23-2.5.42-3.75a59,59,0,0,0,.25-6c.13-4.16.16-8.32.16-12.48V223.49c0-5,0-10.11,0-15.1,0-3.43-.06-6.85-.09-10.2-.07-8.21-.08-16.39-.09-24.55,0-2.95,0-5.93-.22-8.84-.19-1.19-.2-2.4-.42-3.54a46.82,46.82,0,0,0-1-5.74,28,28,0,0,0-.83-3.83,15.89,15.89,0,0,0-8.48-9.89,23.25,23.25,0,0,0-7.16-2.08c-1.84-.23-3.57-.42-5.4-.52a2.9,2.9,0,0,1-1.25-.2,1.67,1.67,0,0,1-.83-.74,4.13,4.13,0,0,1,0-.93,5.69,5.69,0,0,1,.41-1.72h73a2.11,2.11,0,0,0,.61.06h4.54c3,0,5.94,0,9,.07,3.86,0,7.68,0,11.65,0,5.41.1,10.82.11,16.23.21,3.1,0,6.25.1,9.35.41,1.9.21,3.95.42,5.82.73a78.43,78.43,0,0,1,9,2,68.37,68.37,0,0,1,27.46,15.16,52.79,52.79,0,0,1,9.16,10.82,51.87,51.87,0,0,1,6.84,15.19c.64,2.39,1.06,4.89,1.48,7.38.18,1,.21,2.19.41,3.23a11.5,11.5,0,0,0,.17,2.24c0,.42,0,.85,0,1.27Zm-108.2,38.46V264.1c0,.28.23.63.23.83a1.54,1.54,0,0,0,1.25,1.16,6,6,0,0,0,1.43.09,26.18,26.18,0,0,0,4.16-.42,78.73,78.73,0,0,0,8.07-1.72,50.38,50.38,0,0,0,25-16.61c1.85-2.28,3.51-4.76,5.18-7.25a80.4,80.4,0,0,0,9.39-20.77c.83-2.91,1.5-5.92,2.07-8.94.19-1.67.42-3.41.61-5.1.16-2.08.23-4.13.23-6.14,0-2.7-.17-5.33-.42-8-.21-1.63-.41-3.22-.64-4.89-.37-2.18-.83-4.47-1.25-6.66a93,93,0,0,0-3-9.67,50.15,50.15,0,0,0-6.33-12,43.16,43.16,0,0,0-20.63-15.6,49.83,49.83,0,0,0-14-2.81c-1.16-.11-2.4-.11-3.65-.21-1.7,0-3.56,0-5.22.1a3.12,3.12,0,0,0-1,.11,2,2,0,0,0-1.66,1.67.47.47,0,0,1-.12.31,13.12,13.12,0,0,0-.11,2.08q0,7.17,0,14.35c0,2.92.05,5.83.06,8.79,0,5.57,0,11.09,0,16.6q0,9.21,0,18.41v.42c0,.17,0,.31.21.36a.22.22,0,0,1,.18.26v30.56Z"/></g></g></svg>