<?xml version="1.0" encoding="utf-8"?>
<!-- Generator: Adobe Illustrator 26.3.1, SVG Export Plug-In . SVG Version: 6.00 Build 0)  -->
<svg version="1.1" id="Capa_1" xmlns="http://www.w3.org/2000/svg" xmlns:xlink="http://www.w3.org/1999/xlink" x="0px" y="0px"
	 viewBox="0 0 960 560" style="enable-background:new 0 0 960 560;" xml:space="preserve">
<style type="text/css">
	.st0{display:none;}
	.st1{display:inline;fill:url(#SVGID_1_);}
	.st2{display:inline;}
	.st3{fill:#FFFFFF;}
	.st4{display:inline;fill:#FFFFFF;}
	.st5{display:inline;fill:#295396;}
	.st6{font-family:'MyriadPro-Bold';}
	.st7{font-size:226.7717px;}
	.st8{fill:#ADADAD;}
	.st9{fill:url(#SVGID_00000099637828294978535550000005743903327240047766_);}
	.st10{fill-rule:evenodd;clip-rule:evenodd;fill:#FFFFFF;}
</style>
<g id="Whatsapp" class="st0">
	
		<radialGradient id="SVGID_1_" cx="157.7967" cy="266.4149" r="263.8217" gradientTransform="matrix(-0.3109 -0.9505 1.4931 -0.4883 -190.9356 546.4944)" gradientUnits="userSpaceOnUse">
		<stop  offset="0" style="stop-color:#FFC854"/>
		<stop  offset="0.2688" style="stop-color:#FF3F2E"/>
		<stop  offset="0.5484" style="stop-color:#FF1A7E"/>
		<stop  offset="0.7796" style="stop-color:#9127D1"/>
		<stop  offset="1" style="stop-color:#5C39EC"/>
	</radialGradient>
	<circle class="st1" cx="168.3" cy="158.3" r="127.6"/>
	<g class="st2">
		<path class="st3" d="M213.9,81.6c18.5,0,33.6,15.1,33.6,33.6v91.2c0,18.5-15.1,33.6-33.6,33.6h-91.2c-18.5,0-33.6-15.1-33.6-33.6
			v-91.2c0-18.5,15.1-33.6,33.6-33.6H213.9 M213.9,64.4h-91.2C94.7,64.4,72,87.1,72,115.1v91.2c0,28.1,22.7,50.8,50.8,50.8h91.2
			c28.1,0,50.8-22.7,50.8-50.8v-91.2C264.7,87.1,242,64.4,213.9,64.4L213.9,64.4z"/>
	</g>
	<g class="st2">
		<path class="st3" d="M168.3,126.1c19.1,0,34.6,15.5,34.6,34.6s-15.5,34.6-34.6,34.6s-34.6-15.5-34.6-34.6S149.3,126.1,168.3,126.1
			 M168.3,111.1c-27.4,0-49.6,22.2-49.6,49.6s22.2,49.6,49.6,49.6s49.6-22.2,49.6-49.6S195.7,111.1,168.3,111.1L168.3,111.1z"/>
	</g>
	<circle class="st4" cx="217.7" cy="107.5" r="14.2"/>
</g>
<g class="st0">
	<circle class="st5" cx="495.4" cy="159" r="127.6"/>
	<text transform="matrix(1 0 0 1 455.061 239.7589)" class="st4 st6 st7">f</text>
</g>
<g id="Whatsapp_1_" class="st0">
	<g class="st2">
		<path class="st8" d="M799,26.2c67.4,0,123.7,52.8,127.3,120.9c3.7,70.4-50.4,130.4-120.7,134.1c-2.3,0.1-4.5,0.2-6.8,0.2
			c-24.7,0-47.9-7.1-67.5-19.4l-75.7,29.8l30-79.3c-8.1-15.7-13.1-33.3-14.1-52c-3.7-70.4,50.4-130.4,120.7-134.1
			C794.5,26.3,796.8,26.2,799,26.2 M799,23.4c-2.3,0-4.6,0.1-6.9,0.2c-34.8,1.8-66.8,17.1-90.1,43s-35.1,59.3-33.3,94.1
			c1,18.3,5.6,35.8,13.8,52L653,290.7l-2.3,6l6-2.3l74.3-29.3c20.4,12.5,43.8,19.1,67.8,19.1c2.3,0,4.6-0.1,6.9-0.2
			c34.8-1.8,66.8-17.1,90.1-43c23.3-25.9,35.1-59.3,33.3-94.1C925.5,77.7,868.3,23.4,799,23.4L799,23.4z"/>
	</g>
	<g class="st2">
		
			<linearGradient id="SVGID_00000067228508265794030270000016416053253644610232_" gradientUnits="userSpaceOnUse" x1="792.8148" y1="270.7139" x2="792.8148" y2="37.6327" gradientTransform="matrix(0.9986 -5.225894e-02 5.225894e-02 0.9986 -7.0511 41.4069)">
			<stop  offset="0" style="stop-color:#47C530"/>
			<stop  offset="0.1581" style="stop-color:#32B321"/>
			<stop  offset="0.3649" style="stop-color:#1DA212"/>
			<stop  offset="0.5" style="stop-color:#159B0C"/>
			<stop  offset="0.6339" style="stop-color:#1CA111"/>
			<stop  offset="0.8349" style="stop-color:#31B320"/>
			<stop  offset="1" style="stop-color:#47C530"/>
		</linearGradient>
		<path style="fill:url(#SVGID_00000067228508265794030270000016416053253644610232_);" d="M698.3,211.6l-2.3-4.4
			c-7.7-14.8-12-30.8-12.9-47.5c-3.4-64.2,46.1-119.1,110.3-122.5c2.1-0.1,4.1-0.2,6.2-0.2c62,0,113,48.5,116.3,110.5
			c1.6,31.1-8.9,60.9-29.8,84.1s-49.4,36.8-80.5,38.4c-2.1,0.1-4.1,0.2-6.2,0.2c0,0,0,0,0,0c-21.9,0-43.2-6.1-61.7-17.7l-4.7-3
			l-57.7,22.7L698.3,211.6z"/>
		<path class="st3" d="M799.7,48.1c56.1,0,102.3,43.9,105.3,100c1.5,28.1-8.1,55.2-27,76.1s-44.8,33.3-72.9,34.8
			c-1.9,0.1-3.8,0.1-5.6,0.1c-19.8,0-39.1-5.5-55.8-16l-9.4-5.9l-10.4,4.1l-29.3,11.6l12.4-32.7l3.5-9.2l-4.5-8.7
			c-6.9-13.4-10.9-27.8-11.6-43c-1.5-28.1,8.1-55.2,27-76.1C740,62,765.9,49.7,794.1,48.2C795.9,48.1,797.8,48.1,799.7,48.1
			 M799.7,26c-2.2,0-4.5,0.1-6.8,0.2c-70.4,3.7-124.4,63.7-120.7,134.1c1,18.8,6,36.4,14.1,52l-30,79.3l75.7-29.8
			c19.7,12.3,42.9,19.4,67.5,19.4c2.2,0,4.5-0.1,6.8-0.2c70.4-3.7,124.4-63.7,120.7-134.1C923.4,78.8,867.1,26,799.7,26L799.7,26z"
			/>
	</g>
	<g id="Telf" class="st2">
		<path class="st10" d="M856.7,174.2c-6-3.6-13.8-7.6-20.9-4.7c-5.4,2.2-8.9,10.7-12.4,15.1c-1.8,2.2-4,2.6-6.7,1.5
			c-20.4-8.1-36-21.7-47.3-40.5c-1.9-2.9-1.6-5.2,0.7-7.9c3.4-4,7.7-8.5,8.6-13.9c0.9-5.4-1.6-11.7-3.8-16.5
			c-2.8-6.1-6-14.9-12.2-18.4c-5.7-3.2-13.1-1.4-18.1,2.7c-8.7,7.1-12.9,18.2-12.8,29.2c0,3.1,0.4,6.2,1.1,9.3
			c1.8,7.3,5.1,14,8.9,20.5c2.8,4.9,5.9,9.6,9.3,14.1c10.9,14.8,24.5,27.7,40.2,37.3c7.9,4.8,16.3,9,25.1,11.9
			c9.8,3.2,18.6,6.6,29.2,4.6c11.1-2.1,22.1-9,26.5-19.7c1.3-3.2,2-6.7,1.2-10C871.6,181.7,862.3,177.6,856.7,174.2z"/>
	</g>
</g>
<g id="Whatsapp_00000029730797571932400890000009337145433376858514_" class="st0">
	<g class="st2">
		<path class="st3" d="M210,652.9c18.5,0,33.6,15.1,33.6,33.6v91.2c0,18.5-15.1,33.6-33.6,33.6h-91.2c-18.5,0-33.6-15.1-33.6-33.6
			v-91.2c0-18.5,15.1-33.6,33.6-33.6H210 M210,635.7h-91.2c-28.1,0-50.8,22.7-50.8,50.8v91.2c0,28.1,22.7,50.8,50.8,50.8H210
			c28.1,0,50.8-22.7,50.8-50.8v-91.2C260.8,658.4,238,635.7,210,635.7L210,635.7z"/>
	</g>
	<g class="st2">
		<path class="st3" d="M164.4,697.4c19.1,0,34.6,15.5,34.6,34.6c0,19.1-15.5,34.6-34.6,34.6s-34.6-15.5-34.6-34.6
			C129.8,713,145.3,697.4,164.4,697.4 M164.4,682.4c-27.4,0-49.6,22.2-49.6,49.6c0,27.4,22.2,49.6,49.6,49.6s49.6-22.2,49.6-49.6
			C214,704.7,191.8,682.4,164.4,682.4L164.4,682.4z"/>
	</g>
	<circle class="st4" cx="213.8" cy="678.8" r="14.2"/>
</g>
<g class="st0">
	<text transform="matrix(1 0 0 1 451.1052 811.0829)" class="st4 st6 st7">f</text>
</g>
<g id="Whatsapp_00000165933698394353580240000005825282688400908708_">
	<g>
		<path class="st3" d="M795.7,614.4c58.8,0,107.2,46,110.3,104.8c1.5,29.5-8.5,57.8-28.3,79.8c-19.8,21.9-46.9,34.9-76.4,36.4
			c-2,0.1-3.9,0.2-5.9,0.2c-20.7,0-41-5.8-58.5-16.8l-7.3-4.6l-8,3.1L681.8,833l16.4-43.4l2.7-7.1l-3.5-6.7
			c-7.3-14-11.4-29.2-12.2-45.1c-1.5-29.5,8.5-57.8,28.3-79.8c19.8-21.9,46.9-34.9,76.4-36.4C791.8,614.4,793.8,614.4,795.7,614.4
			 M795.7,597.3c-2.2,0-4.5,0.1-6.8,0.2c-70.4,3.7-124.4,63.7-120.7,134.1c1,18.8,6,36.4,14.1,52l-30,79.3l75.7-29.8
			c19.7,12.3,42.9,19.4,67.5,19.4c2.2,0,4.5-0.1,6.8-0.2c70.4-3.7,124.4-63.7,120.7-134.1C919.4,650.2,863.1,597.3,795.7,597.3
			L795.7,597.3z"/>
	</g>
	<g id="Telf_00000045605445594205779910000004472118829093432750_">
		<path class="st10" d="M852.7,745.5c-6-3.6-13.8-7.6-20.9-4.7c-5.4,2.2-8.9,10.7-12.4,15.1c-1.8,2.2-4,2.6-6.7,1.5
			c-20.4-8.1-36-21.7-47.3-40.5c-1.9-2.9-1.6-5.2,0.7-7.9c3.4-4,7.7-8.5,8.6-13.9c0.9-5.4-1.6-11.7-3.8-16.5
			c-2.8-6.1-6-14.9-12.2-18.4c-5.7-3.2-13.1-1.4-18.1,2.7c-8.7,7.1-12.9,18.2-12.8,29.2c0,3.1,0.4,6.2,1.1,9.3
			c1.8,7.3,5.1,14,8.9,20.5c2.8,4.9,5.9,9.6,9.3,14.1c10.9,14.8,24.5,27.7,40.2,37.3c7.9,4.8,16.3,9,25.1,11.9
			c9.8,3.2,18.6,6.6,29.2,4.6c11.1-2.1,22.1-9,26.5-19.7c1.3-3.2,2-6.7,1.2-10C867.7,753,858.3,748.9,852.7,745.5z"/>
	</g>
</g>
</svg>
