<svg id="Capa_1" data-name="Capa 1" xmlns="http://www.w3.org/2000/svg" viewBox="0 0 347.3 200"><path d="M0,142.77V139a.49.49,0,0,0,.14-.38c0-.21,0-.42.06-.62,0-.93.13-1.85.25-2.77a45.17,45.17,0,0,1,.92-5.15,37.8,37.8,0,0,1,3.57-9.42A30.27,30.27,0,0,1,21.77,106.4,35.38,35.38,0,0,1,28,104.85a30.15,30.15,0,0,1,3-.36c1.18-.09,2.37-.17,3.55-.19,1.75,0,3.5,0,5.24.19,1,.09,2,.2,3,.36a41.76,41.76,0,0,1,5.51,1.24,37.45,37.45,0,0,1,13.34,7.13,42.88,42.88,0,0,1,7.06,7.56,27.5,27.5,0,0,1,2.94,4.88A33.06,33.06,0,0,1,74.4,137.1a29.48,29.48,0,0,1-.07,5,24.17,24.17,0,0,1-.67,3.86,16.56,16.56,0,0,1-.78,2.28c0,.11-.07.24-.2.29a.89.89,0,0,1-.7.07c-.39-.16-.79-.28-1.19-.4a19.35,19.35,0,0,0-4.46-.87,17,17,0,0,0-3.19,0,16.44,16.44,0,0,0-3.61.82A17.94,17.94,0,0,0,53.28,152a25.4,25.4,0,0,0-6,8.46,21.4,21.4,0,0,0-1.74,11,20.63,20.63,0,0,0,.9,4.18,23,23,0,0,0,5.35,8.73,34.31,34.31,0,0,0,11.45,7.85,48.41,48.41,0,0,0,13.13,3.36c1.07.14,2.15.25,3.22.36,1.29.12,2.58.21,3.87.25a62.14,62.14,0,0,0,8.84-.26c1.08-.12,2.15-.25,3.22-.42a52,52,0,0,0,5.41-1.16A49.44,49.44,0,0,0,122,182.55a39.41,39.41,0,0,0,9.26-13.14,25.54,25.54,0,0,0,2-7.82,25.82,25.82,0,0,0,.05-4,27.31,27.31,0,0,0-.92-5.47,29,29,0,0,0-8.27-13.55,66.76,66.76,0,0,0-6.67-5.41,108,108,0,0,0-10.37-6.51c-3.79-2.13-7.66-4.11-11.52-6.09q-9.44-4.82-18.88-9.64c-6.07-3.12-12.08-6.34-18-9.73a69.06,69.06,0,0,1-12.41-9.07,79.23,79.23,0,0,1-10.2-11.45A47.3,47.3,0,0,1,29,66.5a54.42,54.42,0,0,1-2-8.83c-.23-1.68-.4-3.36-.47-5.06a57.21,57.21,0,0,1,.05-6.28,53.4,53.4,0,0,1,.64-5.51,48.06,48.06,0,0,1,1.7-7,39.16,39.16,0,0,1,9.68-16,46.92,46.92,0,0,1,10.66-8,63.6,63.6,0,0,1,12.16-5C64,4,66.67,3.36,69.32,2.75c1.62-.36,3.24-.7,4.87-1,.93-.15,1.85-.33,2.78-.48s1.69-.24,2.54-.35l2-.24C82.34.61,83.19.51,84,.43,84.68.37,85.33.35,86,.29,87.22.19,88.48.11,89.74.1l1,0A1.31,1.31,0,0,0,91.3,0h4.09A1.61,1.61,0,0,0,96,.08c.78,0,1.57,0,2.35.06,1.26.08,2.51.13,3.76.27.89.09,1.78.14,2.66.25,1.21.14,2.42.32,3.63.48,1.37.18,2.72.42,4.08.67,2.07.4,4.14.81,6.2,1.25l11.08,2.42c2.47.54,4.94,1.09,7.44,1.48a9.81,9.81,0,0,0,2.76.09,5.14,5.14,0,0,0,3.57-2,6.41,6.41,0,0,0,.69-1.11,1.12,1.12,0,0,1,.52-.51,3.32,3.32,0,0,1,1.36-.33,1.16,1.16,0,0,1,1,.44,2.82,2.82,0,0,1,.73,1.59c0,.42.1.83.14,1.25l.27,2.45c.09.79.17,1.59.25,2.39s.19,1.81.28,2.71.17,1.63.25,2.45l.27,2.76c.09.89.17,1.78.25,2.66s.19,1.91.27,2.87.17,1.88.26,2.82l.27,3c.08,1,.17,1.92.25,2.87s.18,2.09.28,3.13l.24,2.82c.09,1,.19,2,.28,3.08s.16,1.84.25,2.76l.27,2.92c.09.89.17,1.78.26,2.66s.17,1.78.26,2.66.19,1.77.28,2.66a7,7,0,0,1-.05,2.14,2,2,0,0,1-2.2,1.58.21.21,0,0,1-.22-.19c0-.1-.06-.2-.09-.3-.49-2-1-4-1.48-6-.84-3.44-1.63-6.9-2.52-10.32s-1.85-6.69-3-10a49.71,49.71,0,0,0-4.71-9.74,38.71,38.71,0,0,0-11.76-12,44,44,0,0,0-14-5.82c-1.38-.33-2.76-.59-4.16-.82-.81-.13-1.62-.23-2.44-.32s-1.8-.18-2.71-.25-1.88-.15-2.82-.17c-2,0-3.94-.07-5.92.07-1.18.08-2.36.19-3.54.36a36.82,36.82,0,0,0-4.86,1,31.14,31.14,0,0,0-13.53,7.74,27.74,27.74,0,0,0-8.52,19,26.59,26.59,0,0,0,.42,6.1,29.11,29.11,0,0,0,3.62,9.7,34.17,34.17,0,0,0,5.45,6.82,56.54,56.54,0,0,0,8.82,7.06,103.75,103.75,0,0,0,9.42,5.45c4.18,2.17,8.41,4.24,12.65,6.3,7.14,3.49,14.32,6.91,21.44,10.45,4.86,2.42,9.69,4.88,14.46,7.48a74.59,74.59,0,0,1,14.71,10.41A61,61,0,0,1,165,113.45a52.44,52.44,0,0,1,6.38,13.67,49.18,49.18,0,0,1,1.54,6.88,29.94,29.94,0,0,1,.41,4,1.18,1.18,0,0,0,.09.56v6.19a1,1,0,0,0-.09.56c0,.33,0,.66,0,1-.13,1.13-.25,2.26-.43,3.38a47,47,0,0,1-1.54,6.72A50.87,50.87,0,0,1,154,181.72a69.56,69.56,0,0,1-9.38,6.21,86.68,86.68,0,0,1-23.18,8.71c-1.63.38-3.27.72-4.91,1-1.13.21-2.27.38-3.41.56l-2.48.38-2,.25-2.14.24c-.86.09-1.73.19-2.6.27-.61.06-1.22.09-1.83.14l-3.81.27c-1,.06-1.92.1-2.88.14a1,1,0,0,0-.51.09H85.43a2.82,2.82,0,0,0-.31-.07l-2.56-.14c-.8,0-1.6-.08-2.4-.14-1.07-.08-2.13-.17-3.19-.27s-2.36-.21-3.54-.35-2.42-.31-3.63-.49c-1.43-.21-2.86-.41-4.29-.66q-2.81-.49-5.59-1.1c-3.66-.8-7.29-1.74-10.86-2.86a95.09,95.09,0,0,1-13.92-5.57A75.61,75.61,0,0,1,16,174.88a62.64,62.64,0,0,1-7.87-9.18,45,45,0,0,1-6.59-13.94A39.14,39.14,0,0,1,.3,145c0-.54-.08-1.08-.13-1.62A.81.81,0,0,0,0,142.77Z"/><path d="M347.3,55.06v7.5c0,.23-.07.46-.08.69,0,.53,0,1.07-.06,1.6-.12,1.28-.24,2.56-.42,3.83a61.2,61.2,0,0,1-11,27.27,64.53,64.53,0,0,1-14.58,14.46,75.45,75.45,0,0,1-19.27,10,92.18,92.18,0,0,1-18.82,4.37c-1.83.24-3.65.42-5.48.58s-3.63.29-5.45.38c-2.59.12-5.17.21-7.76.24-4.13,0-8.25.07-12.37,0-1.34,0-2.68,0-4,0a6.58,6.58,0,0,0-1.33.11,1.46,1.46,0,0,0-1.36,1.42c0,.1,0,.21,0,.32,0,.35,0,.71,0,1.07,0,1.39.1,2.78.11,4.17q0,10.71.21,21.43c0,3.26.1,6.53.17,9.79s.18,6.5.26,9.75a26,26,0,0,0,.37,3.62,36.9,36.9,0,0,0,1.93,6.83,17.34,17.34,0,0,0,3.36,5.55,16.83,16.83,0,0,0,6,4.18,24.91,24.91,0,0,0,5.24,1.49,10.39,10.39,0,0,0,2.55.21l.69-.06a6.86,6.86,0,0,1,1.92.08,1.67,1.67,0,0,1,1.41,1.54,4.18,4.18,0,0,1,0,1.06,1.58,1.58,0,0,1-1,1.35.27.27,0,0,0-.17.11h-1.71a.84.84,0,0,0-.2-.08,16.7,16.7,0,0,0-2.92-.28q-8.28,0-16.55,0l-19.06,0H179.12c-.57,0-1.14,0-1.71,0a7.9,7.9,0,0,1-1.61-.07,2.37,2.37,0,0,1-1.08-.43,14.46,14.46,0,0,1-1.35-1.27c.44-.45.78-.95,1.24-1.35a1.55,1.55,0,0,1,.76-.37c.63-.11,1.27-.23,1.9-.32,1.57-.23,3.15-.39,4.72-.65a21.63,21.63,0,0,0,3.88-1,14.9,14.9,0,0,0,5.86-3.83,16.79,16.79,0,0,0,3.24-5.19,31.35,31.35,0,0,0,1.93-8c.15-1.13.26-2.27.36-3.41.13-1.47.22-3,.27-4.43.07-2.12.1-4.25.1-6.37q0-7.08,0-14.14,0-9,0-17.94,0-10.05,0-20.09,0-14.27,0-28.54,0-10.39,0-20.78c0-3.57,0-7.14,0-10.71l0-15.26c0-2.82,0-5.64-.29-8.46-.13-1.33-.28-2.66-.47-4-.28-1.89-.63-3.76-1.05-5.63a26.34,26.34,0,0,0-.95-3.45,14.42,14.42,0,0,0-4.55-6.36A17.27,17.27,0,0,0,185,4.92a31.52,31.52,0,0,0-7.39-1.39c-.73-.07-1.46-.11-2.19-.13a2.81,2.81,0,0,1-1.15-.22A1.24,1.24,0,0,1,173.43,2a3.13,3.13,0,0,1,.07-1c.09-.34.18-.69.26-1h68.67a1.28,1.28,0,0,0,.58.06h4.23l8.62,0c3.89,0,7.78,0,11.67.07,4.21,0,8.42,0,12.64.13,2.65,0,5.31,0,8,.22,1.69.12,3.38.27,5.06.48,1.87.23,3.74.54,5.59.91a69.28,69.28,0,0,1,11,3.14,62.78,62.78,0,0,1,22.55,14.52,49.28,49.28,0,0,1,11,16.73,54.11,54.11,0,0,1,3,11c.19,1.11.36,2.22.48,3.34a29.45,29.45,0,0,1,.26,3.25A5.53,5.53,0,0,0,347.3,55.06ZM245.74,91.74v2.68q0,12.1,0,24.21c0,.53,0,1.07,0,1.6a3.73,3.73,0,0,0,.18,1,1.75,1.75,0,0,0,1.51,1.27,4.25,4.25,0,0,0,1.07,0c1.76-.14,3.51-.37,5.25-.66a53.51,53.51,0,0,0,7.89-2,46.3,46.3,0,0,0,18-10.89,53.49,53.49,0,0,0,6.56-7.83,79.29,79.29,0,0,0,9.12-17.09,69,69,0,0,0,3.17-11c.3-1.5.56-3,.76-4.53q.24-1.78.39-3.57c.07-.94.1-1.89.15-2.83a62.62,62.62,0,0,0-.06-7.12c-.1-1.69-.27-3.38-.49-5.06-.19-1.49-.41-3-.69-4.44a84.91,84.91,0,0,0-2-8.37,57.2,57.2,0,0,0-4.59-11.34,42.16,42.16,0,0,0-10-12.42,40.74,40.74,0,0,0-16.41-8.34,49.08,49.08,0,0,0-5.25-1c-1.28-.17-2.55-.31-3.83-.39s-2.43-.12-3.64-.16c-1.55-.06-3.11-.05-4.66,0a5.53,5.53,0,0,0-.9.11,2,2,0,0,0-1.74,1.72c0,.12,0,.25-.05.37a11.66,11.66,0,0,0-.08,1.77c0,2.41,0,4.82.06,7.23,0,5.14,0,10.28,0,15.42q0,15.92,0,31.82v.53a.25.25,0,0,0,.19.28c.11,0,.12.11.13.2V91.74Z"/></svg>